<svg xmlns="http://www.w3.org/2000/svg" viewBox="0 0 320 180"><path fill="#fff" d="M0 0h320v180H0z"/><style>@keyframes fade{0%,73%,to{opacity:0}75%,98%{opacity:1}}@keyframes fade2{0%,75%,to{opacity:0}77%,98%{opacity:1}}@keyframes score-draw{73%{stroke-dashoffset:313}72%,80%,to{stroke-dashoffset:0}}@keyframes episode-draw{73%{stroke-dashoffset:956}72%,80%,to{stroke-dashoffset:0}}</style><g style="animation:fade ease-in 32s -24s infinite"><text font-family="-apple-system,BlinkMacSystemFont,Segoe UI,Oxygen,Ubuntu,Cantarell,Fira Sans,Droid Sans,Helvetica Neue,sans-serif" font-size="20" x="10" y="31.377">Nota média na última semana</text><path fill="none" stroke="#333" stroke-dasharray="1" d="M10 170h300M10 158h300M10 146h300M10 134h300M10 122h300M10 110h300M10 98h300M10 86h300M10 74h300M10 62h300M10 50h300"/><path stroke="#df6300" d="M10 88.4V72.8M33.077 83.6V68M56.154 83.6V66.8M79.231 108.8V71.6M102.308 95.6V78.8M125.385 87.2V76.4M148.462 89.6V72.8M171.538 88.4V72.8M217.692 77.6v-4.8M240.769 88.4V71.6M263.846 80V66.8M310 92V77.6"/><path fill="none" stroke="#000" stroke-dasharray="313" marker-mid="url(#SvgjsMarker1002)" style="animation:score-draw ease-in 32s -24s infinite" d="M10 82.4l23.077-6 23.077-3.6L79.23 83.6l23.077 1.2 23.077-6 23.077 1.2 23.076 1.2 46.154-6 23.077 3.6 23.077-3.6 23.077-8.4L310 84.8"/><text font-family="-apple-system,BlinkMacSystemFont,Segoe UI,Oxygen,Ubuntu,Cantarell,Fira Sans,Droid Sans,Helvetica Neue,sans-serif" font-size="60" fill="#df6300" stroke-width="5" stroke="#fff" paint-order="stroke" x="10" y="94.131">7.7</text><text font-family="-apple-system,BlinkMacSystemFont,Segoe UI,Oxygen,Ubuntu,Cantarell,Fira Sans,Droid Sans,Helvetica Neue,sans-serif" font-size="20" fill="#df6300" stroke-width="5" stroke="#fff" paint-order="stroke" stroke-linejoin="round" x="15" y="116.377">↑ 2%</text></g><defs><marker markerWidth="3" markerHeight="3" refX="1.5" refY="1.5" viewBox="0 0 3 3" orient="auto" id="SvgjsMarker1002"><circle r="1.5" cx="1.5" cy="1.5"/></marker><marker markerWidth="3" markerHeight="3" refX="1.5" refY="1.5" viewBox="0 0 3 3" orient="auto" id="SvgjsMarker1003"><circle r="1.5" cx="1.5" cy="1.5"/></marker></defs><g style="animation:fade ease-in 32s -16s infinite"><text font-family="-apple-system,BlinkMacSystemFont,Segoe UI,Oxygen,Ubuntu,Cantarell,Fira Sans,Droid Sans,Helvetica Neue,sans-serif" font-size="20" x="10" y="31.377">Episódios vistos no último mês</text><path fill="none" stroke="#333" stroke-dasharray="1" d="M10 170h300M10 155h300M10 140h300M10 125h300M10 110h300M10 95h300M10 80h300M10 65h300M10 50h300"/><path fill="none" stroke="#000" stroke-dasharray="956" marker-mid="url(#SvgjsMarker1003)" style="animation:episode-draw ease-in 32s -16s infinite" d="M10 140l10.345 15L30.69 50l10.344 105H51.38L61.724 50 72.07 80h10.345 10.345l10.344 15 10.345 30h10.345l10.345-15 10.345-30 10.345 15h10.344l10.345 30h10.345l10.345-30 10.345-30 10.345 60 10.344-30 10.345 15h10.345l10.345 60 10.345-30 10.345-30 10.344 15 10.345 30L310 140"/><text font-family="-apple-system,BlinkMacSystemFont,Segoe UI,Oxygen,Ubuntu,Cantarell,Fira Sans,Droid Sans,Helvetica Neue,sans-serif" font-size="60" fill="#df6300" stroke-width="5" stroke="#fff" paint-order="stroke" x="10" y="94.131">116</text><text font-family="-apple-system,BlinkMacSystemFont,Segoe UI,Oxygen,Ubuntu,Cantarell,Fira Sans,Droid Sans,Helvetica Neue,sans-serif" font-size="20" fill="#df6300" stroke-width="5" stroke="#fff" paint-order="stroke" stroke-linejoin="round" x="15" y="116.377">↑ 7%</text></g><g style="animation:fade ease-in 32s -8s infinite" font-family="-apple-system,BlinkMacSystemFont,Segoe UI,Oxygen,Ubuntu,Cantarell,Fira Sans,Droid Sans,Helvetica Neue,sans-serif"><text font-size="20" x="10" y="31.377">Gêneros das últimas 2 semanas</text><text font-size="15" x="10" y="66.033" style="animation:fade2 ease-in 32s -9s infinite"><tspan fill="#df6300">1 </tspan><tspan>Comédia</tspan></text><text font-size="8" x="22" y="78.551" style="animation:fade2 ease-in 32s -8.5s infinite">40 episódios</text><text font-size="15" x="165" y="66.033" style="animation:fade2 ease-in 32s -8.75s infinite"><tspan fill="#df6300">2 </tspan><tspan>Cotidiano</tspan></text><text font-size="8" x="177" y="78.551" style="animation:fade2 ease-in 32s -8.25s infinite">18 episódios</text><text font-size="15" x="10" y="106.033" style="animation:fade2 ease-in 32s -8.5s infinite"><tspan fill="#df6300">3 </tspan><tspan>Ação</tspan></text><text font-size="8" x="22" y="118.551" style="animation:fade2 ease-in 32s -8s infinite">15 episódios</text><text font-size="15" x="165" y="106.033" style="animation:fade2 ease-in 32s -8.25s infinite"><tspan fill="#df6300">4 </tspan><tspan>Fantasia</tspan></text><text font-size="8" x="177" y="118.551" style="animation:fade2 ease-in 32s -7.75s infinite">14 episódios</text><text font-size="15" x="10" y="146.033" style="animation:fade2 ease-in 32s -8s infinite"><tspan fill="#df6300">5 </tspan><tspan>Aventura</tspan></text><text font-size="8" x="22" y="158.551" style="animation:fade2 ease-in 32s -7.5s infinite">5 episódios</text><text font-size="15" x="165" y="146.033" style="animation:fade2 ease-in 32s -7.75s infinite"><tspan fill="#df6300">5 </tspan><tspan>Romance</tspan></text><text font-size="8" x="177" y="158.551" style="animation:fade2 ease-in 32s -7.25s infinite">5 episódios</text></g><g style="animation:fade ease-in 32s 0s infinite"><path stroke="#333" d="M110 0v180"/><path stroke="#df6300" d="M210 0v180"/><text font-family="-apple-system,BlinkMacSystemFont,Segoe UI,Oxygen,Ubuntu,Cantarell,Fira Sans,Droid Sans,Helvetica Neue,sans-serif" font-size="7" fill="#333" x="5" y="174.482">PENÚLTIMA SEMANA</text><text font-family="-apple-system,BlinkMacSystemFont,Segoe UI,Oxygen,Ubuntu,Cantarell,Fira Sans,Droid Sans,Helvetica Neue,sans-serif" font-size="7" fill="#333" x="115" y="174.482">ÚLTIMA SEMANA</text><text font-family="-apple-system,BlinkMacSystemFont,Segoe UI,Oxygen,Ubuntu,Cantarell,Fira Sans,Droid Sans,Helvetica Neue,sans-serif" font-size="7" fill="#333" x="215" y="174.482">PRÓXIMA SEMANA</text><path fill="#fff" stroke="#000" d="M124.894 50H98.298v5.538h26.596zM98.298 50H85.532v5.538h12.766zM85.532 50h-13.83v5.538h13.83zM71.702 50H18.511v5.538h53.191z"/><text font-family="-apple-system,BlinkMacSystemFont,Segoe UI,Oxygen,Ubuntu,Cantarell,Fira Sans,Droid Sans,Helvetica Neue,sans-serif" font-size="4.154" x="20.818" y="54.44">Kuruneko Season 2</text><path fill="#fff" stroke="#000" d="M127.021 63.846h-12.766v5.538h12.766zM114.255 63.846h-12.766v5.538h12.766z"/><path fill="#fff" stroke="#000" d="M101.489 63.846H88.723v5.538h12.766zM88.723 63.846H54.68v5.538h34.043z"/><text font-family="-apple-system,BlinkMacSystemFont,Segoe UI,Oxygen,Ubuntu,Cantarell,Fira Sans,Droid Sans,Helvetica Neue,sans-serif" font-size="4.154" x="56.989" y="68.286">Neko Neko Nihonshi 2nd Season</text><path fill="#fff" stroke="#000" d="M130.213 84.615H1.49v5.538h128.723z"/><text font-family="-apple-system,BlinkMacSystemFont,Segoe UI,Oxygen,Ubuntu,Cantarell,Fira Sans,Droid Sans,Helvetica Neue,sans-serif" font-size="4.154" x="3.797" y="89.055">Chibi Maruko-chan</text><path fill="#fff" stroke="#000" d="M118.511 84.615H92.979v5.538h25.532z"/><path fill="#fff" stroke="#000" d="M102.553 84.615H89.787v5.538h12.766zM89.787 84.615h-4.255v5.538h4.255zM85.532 84.615h-4.255v5.538h4.255zM81.277 84.615H70.639v5.538h10.638zM70.638 84.615H57.872v5.538h12.766z"/><text font-family="-apple-system,BlinkMacSystemFont,Segoe UI,Oxygen,Ubuntu,Cantarell,Fira Sans,Droid Sans,Helvetica Neue,sans-serif" font-size="4.154" x="60.18" y="89.055">Sono Bisque Doll wa Koi wo Suru</text><path fill="#fff" stroke="#000" d="M121.702 105.385h-6.383v5.538h6.383zM115.319 105.385h-4.255v5.538h4.255zM111.064 105.385H98.298v5.538h12.766z"/><path fill="#fff" stroke="#000" d="M104.681 105.385H91.915v5.538h12.766z"/><path fill="#fff" stroke="#000" d="M96.17 105.385h-8.511v5.538h8.511zM79.149 105.385H66.383v5.538h12.766z"/><path fill="#fff" stroke="#000" d="M74.894 105.385h-6.383v5.538h6.383zM68.511 105.385H60v5.538h8.511z"/><text font-family="-apple-system,BlinkMacSystemFont,Segoe UI,Oxygen,Ubuntu,Cantarell,Fira Sans,Droid Sans,Helvetica Neue,sans-serif" font-size="4.154" x="62.308" y="109.824">Steins;Gate 0</text><path fill="#fff" stroke="#000" d="M120.638 126.154h-2.128v5.538h2.128z"/><path fill="#fff" stroke="#000" d="M118.511 126.154h-4.255v5.538h4.255z"/><path fill="#fff" stroke="#000" d="M116.383 126.154h-12.766v5.538h12.766z"/><path fill="#fff" stroke="#000" d="M110 126.154h-6.383v5.538H110zM103.617 126.154h-4.255v5.538h4.255zM99.362 126.154H86.596v5.538h12.766z"/><path fill="#fff" stroke="#000" d="M92.979 126.154H80.213v5.538h12.766z"/><path fill="#fff" stroke="#000" d="M82.34 126.154h-8.511v5.538h8.511z"/><path fill="#fff" stroke="#000" d="M73.83 126.154h-4.255v5.538h4.255zM69.574 126.154H56.808v5.538h12.766z"/><text font-family="-apple-system,BlinkMacSystemFont,Segoe UI,Oxygen,Ubuntu,Cantarell,Fira Sans,Droid Sans,Helvetica Neue,sans-serif" font-size="4.154" x="59.116" y="130.594">Gamers!</text><path fill="#fff" stroke="#000" d="M102.553 140H85.532v5.538h17.021z"/><text font-family="-apple-system,BlinkMacSystemFont,Segoe UI,Oxygen,Ubuntu,Cantarell,Fira Sans,Droid Sans,Helvetica Neue,sans-serif" font-size="4.154" x="87.84" y="144.44">Ore no Imouto ga Konnani Kawaii Wake ga Nai SD Chara ni Yoru Character Commentary</text><text font-family="-apple-system,BlinkMacSystemFont,Segoe UI,Oxygen,Ubuntu,Cantarell,Fira Sans,Droid Sans,Helvetica Neue,sans-serif" font-size="20" x="10" y="31.377">Animes planejados</text></g><text font-family="-apple-system,BlinkMacSystemFont,Segoe UI,Oxygen,Ubuntu,Cantarell,Fira Sans,Droid Sans,Helvetica Neue,sans-serif" font-size="5" fill="#333" x="310" y="12.344" text-anchor="end" opacity=".5">Atualizado em 19/06/2022</text></svg>