<svg xmlns="http://www.w3.org/2000/svg" viewBox="0 0 320 180"><path fill="#fff" d="M0 0h320v180H0z"/><style>@keyframes fade{0%,73%,to{opacity:0}75%,98%{opacity:1}}@keyframes fade2{0%,75%,to{opacity:0}77%,98%{opacity:1}}@keyframes score-draw{73%{stroke-dashoffset:302}72%,80%,to{stroke-dashoffset:0}}@keyframes episode-draw{73%{stroke-dashoffset:914}72%,80%,to{stroke-dashoffset:0}}</style><g style="animation:fade ease-in 32s -24s infinite"><text font-family="-apple-system,BlinkMacSystemFont,Segoe UI,Oxygen,Ubuntu,Cantarell,Fira Sans,Droid Sans,Helvetica Neue,sans-serif" font-size="20" x="10" y="31.377">Nota média na última semana</text><path fill="none" stroke="#333" stroke-dasharray="1" d="M10 170h300M10 158h300M10 146h300M10 134h300M10 122h300M10 110h300M10 98h300M10 86h300M10 74h300M10 62h300M10 50h300"/><path stroke="#df6300" d="M10 77.6V68M33.077 78.8v-8.4M56.154 76.4v-3.6M79.231 80V68M102.308 78.8v-9.6M125.385 84.8v-18M148.462 83.6V69.2M171.538 82.4V66.8M194.615 84.8v-18M217.692 80v-9.6M240.769 81.2V66.8M263.846 80V66.8M286.923 77.6v-12M310 83.6V64.4"/><path fill="none" stroke="#000" stroke-dasharray="302" marker-mid="url(#SvgjsMarker1002)" style="animation:score-draw ease-in 32s -24s infinite" d="M10 71.6l23.077 3.6L56.154 74H79.23h23.077l23.077 1.2 23.077 2.4 23.076-3.6 23.077 1.2h23.077 23.077l23.077-3.6 23.077 1.2L310 75.2"/><text font-family="-apple-system,BlinkMacSystemFont,Segoe UI,Oxygen,Ubuntu,Cantarell,Fira Sans,Droid Sans,Helvetica Neue,sans-serif" font-size="60" fill="#df6300" stroke-width="5" stroke="#fff" paint-order="stroke" x="10" y="94.131">8.0</text></g><defs><marker markerWidth="3" markerHeight="3" refX="1.5" refY="1.5" viewBox="0 0 3 3" orient="auto" id="SvgjsMarker1002"><circle r="1.5" cx="1.5" cy="1.5"/></marker><marker markerWidth="3" markerHeight="3" refX="1.5" refY="1.5" viewBox="0 0 3 3" orient="auto" id="SvgjsMarker1003"><circle r="1.5" cx="1.5" cy="1.5"/></marker></defs><g style="animation:fade ease-in 32s -16s infinite"><text font-family="-apple-system,BlinkMacSystemFont,Segoe UI,Oxygen,Ubuntu,Cantarell,Fira Sans,Droid Sans,Helvetica Neue,sans-serif" font-size="20" x="10" y="31.377">Episódios vistos no último mês</text><path fill="none" stroke="#333" stroke-dasharray="1" d="M10 170h300M10 159.091h300M10 148.182h300M10 137.273h300M10 126.364h300M10 115.455h300M10 104.545h300M10 93.636h300M10 82.727h300M10 71.818h300M10 60.909h300M10 50h300"/><path fill="none" stroke="#000" stroke-dasharray="914" marker-mid="url(#SvgjsMarker1003)" style="animation:episode-draw ease-in 32s -16s infinite" d="M10 170l10.345-21.818 10.345-21.818 10.344 21.818L51.38 159.09l10.345-54.546 10.345 32.728 10.345-10.91h10.345l10.344 21.819 10.345-21.818 10.345-43.637 10.345 43.637 10.345-21.819 10.345 10.91 10.344-10.91 10.345-21.818 10.345 43.637 10.345 21.818 10.345-21.818 10.345-10.91L227.24 60.91l10.345 76.364 10.345-54.546 10.345-21.818 10.345 21.818 10.345 43.637 10.344 10.909 10.345-54.546L310 50"/><text font-family="-apple-system,BlinkMacSystemFont,Segoe UI,Oxygen,Ubuntu,Cantarell,Fira Sans,Droid Sans,Helvetica Neue,sans-serif" font-size="60" fill="#df6300" stroke-width="5" stroke="#fff" paint-order="stroke" x="10" y="94.131">149</text><text font-family="-apple-system,BlinkMacSystemFont,Segoe UI,Oxygen,Ubuntu,Cantarell,Fira Sans,Droid Sans,Helvetica Neue,sans-serif" font-size="20" fill="#df6300" stroke-width="5" stroke="#fff" paint-order="stroke" stroke-linejoin="round" x="15" y="116.377">↑ 6%</text></g><g style="animation:fade ease-in 32s -8s infinite" font-family="-apple-system,BlinkMacSystemFont,Segoe UI,Oxygen,Ubuntu,Cantarell,Fira Sans,Droid Sans,Helvetica Neue,sans-serif"><text font-size="20" x="10" y="31.377">Gêneros das últimas 2 semanas</text><text font-size="15" x="10" y="66.033" style="animation:fade2 ease-in 32s -9s infinite"><tspan fill="#df6300">1 </tspan><tspan>Cotidiano</tspan></text><text font-size="8" x="22" y="78.551" style="animation:fade2 ease-in 32s -8.5s infinite">58 episódios</text><text font-size="15" x="165" y="66.033" style="animation:fade2 ease-in 32s -8.75s infinite"><tspan fill="#df6300">2 </tspan><tspan>Comédia</tspan></text><text font-size="8" x="177" y="78.551" style="animation:fade2 ease-in 32s -8.25s infinite">55 episódios</text><text font-size="15" x="10" y="106.033" style="animation:fade2 ease-in 32s -8.5s infinite"><tspan fill="#df6300">3 </tspan><tspan>Sobrenatural</tspan></text><text font-size="8" x="22" y="118.551" style="animation:fade2 ease-in 32s -8s infinite">31 episódios</text><text font-size="15" x="165" y="106.033" style="animation:fade2 ease-in 32s -8.25s infinite"><tspan fill="#df6300">4 </tspan><tspan>Romance</tspan></text><text font-size="8" x="177" y="118.551" style="animation:fade2 ease-in 32s -7.75s infinite">19 episódios</text><text font-size="15" x="10" y="146.033" style="animation:fade2 ease-in 32s -8s infinite"><tspan fill="#df6300">5 </tspan><tspan>Fantasia</tspan></text><text font-size="8" x="22" y="158.551" style="animation:fade2 ease-in 32s -7.5s infinite">16 episódios</text><text font-size="15" x="165" y="146.033" style="animation:fade2 ease-in 32s -7.75s infinite"><tspan fill="#df6300">5 </tspan><tspan>Drama</tspan></text><text font-size="8" x="177" y="158.551" style="animation:fade2 ease-in 32s -7.25s infinite">16 episódios</text></g><g style="animation:fade ease-in 32s 0s infinite"><path stroke="#333" d="M110 0v180"/><path stroke="#df6300" d="M210 0v180"/><text font-family="-apple-system,BlinkMacSystemFont,Segoe UI,Oxygen,Ubuntu,Cantarell,Fira Sans,Droid Sans,Helvetica Neue,sans-serif" font-size="7" fill="#333" x="5" y="174.482">PENÚLTIMA SEMANA</text><text font-family="-apple-system,BlinkMacSystemFont,Segoe UI,Oxygen,Ubuntu,Cantarell,Fira Sans,Droid Sans,Helvetica Neue,sans-serif" font-size="7" fill="#333" x="115" y="174.482">ÚLTIMA SEMANA</text><text font-family="-apple-system,BlinkMacSystemFont,Segoe UI,Oxygen,Ubuntu,Cantarell,Fira Sans,Droid Sans,Helvetica Neue,sans-serif" font-size="7" fill="#333" x="215" y="174.482">PRÓXIMA SEMANA</text><path fill="#fff" stroke="#000" d="M-30 50h600v12H-30z"/><text font-family="-apple-system,BlinkMacSystemFont,Segoe UI,Oxygen,Ubuntu,Cantarell,Fira Sans,Droid Sans,Helvetica Neue,sans-serif" font-size="9" x="5" y="59.62">Kuromajo-san ga Tooru!!</text><path fill="#fff" stroke="#000" d="M110 50h120v12H110z"/><text font-family="-apple-system,BlinkMacSystemFont,Segoe UI,Oxygen,Ubuntu,Cantarell,Fira Sans,Droid Sans,Helvetica Neue,sans-serif" font-size="9" x="115" y="59.62">Umayon</text><path fill="#fff" stroke="#000" d="M230 50h130v12H230z"/><text font-family="-apple-system,BlinkMacSystemFont,Segoe UI,Oxygen,Ubuntu,Cantarell,Fira Sans,Droid Sans,Helvetica Neue,sans-serif" font-size="9" x="235" y="59.62">Haitai Nanafa 2nd Season</text><path fill="#fff" stroke="#000" d="M-70 65h750v12H-70z"/><text font-family="-apple-system,BlinkMacSystemFont,Segoe UI,Oxygen,Ubuntu,Cantarell,Fira Sans,Droid Sans,Helvetica Neue,sans-serif" font-size="9" x="5" y="74.62">Chibi☆Devi!</text><path fill="#fff" stroke="#000" d="M180 65h120v12H180z"/><text font-family="-apple-system,BlinkMacSystemFont,Segoe UI,Oxygen,Ubuntu,Cantarell,Fira Sans,Droid Sans,Helvetica Neue,sans-serif" font-size="9" x="185" y="74.62">One Room</text><path fill="#fff" stroke="#000" d="M300 65h120v12H300z"/><text font-family="-apple-system,BlinkMacSystemFont,Segoe UI,Oxygen,Ubuntu,Cantarell,Fira Sans,Droid Sans,Helvetica Neue,sans-serif" font-size="9" x="305" y="74.62">Nyanpiro</text><path fill="#fff" stroke="#000" d="M-90 80h380v12H-90z"/><text font-family="-apple-system,BlinkMacSystemFont,Segoe UI,Oxygen,Ubuntu,Cantarell,Fira Sans,Droid Sans,Helvetica Neue,sans-serif" font-size="9" x="5" y="89.62">Shirokuma Cafe</text><path fill="#fff" stroke="#000" d="M30 80h130v12H30z"/><text font-family="-apple-system,BlinkMacSystemFont,Segoe UI,Oxygen,Ubuntu,Cantarell,Fira Sans,Droid Sans,Helvetica Neue,sans-serif" font-size="9" x="35" y="89.62">Tonari no Kaibutsu-kun</text><path fill="#fff" stroke="#000" d="M160 80h600v12H160z"/><text font-family="-apple-system,BlinkMacSystemFont,Segoe UI,Oxygen,Ubuntu,Cantarell,Fira Sans,Droid Sans,Helvetica Neue,sans-serif" font-size="9" x="165" y="89.62">Chibi Maruko-chan</text><path fill="#fff" stroke="#000" d="M-10 95H0v12h-10zM0 95h130v12H0z"/><text font-family="-apple-system,BlinkMacSystemFont,Segoe UI,Oxygen,Ubuntu,Cantarell,Fira Sans,Droid Sans,Helvetica Neue,sans-serif" font-size="9" x="5" y="104.62">Bokutachi wa Benkyou ga Dekinai!</text><path fill="#fff" stroke="#000" d="M130 95h110v12H130z"/><text font-family="-apple-system,BlinkMacSystemFont,Segoe UI,Oxygen,Ubuntu,Cantarell,Fira Sans,Droid Sans,Helvetica Neue,sans-serif" font-size="9" x="135" y="104.62">Jashin-chan Dropkick&apos;</text><path fill="#fff" stroke="#000" d="M230 95h500v12H230z"/><text font-family="-apple-system,BlinkMacSystemFont,Segoe UI,Oxygen,Ubuntu,Cantarell,Fira Sans,Droid Sans,Helvetica Neue,sans-serif" font-size="9" x="235" y="104.62">Shirokuma Cafe</text><path fill="#fff" stroke="#000" d="M-70 110H40v12H-70zM40 110h120v12H40z"/><text font-family="-apple-system,BlinkMacSystemFont,Segoe UI,Oxygen,Ubuntu,Cantarell,Fira Sans,Droid Sans,Helvetica Neue,sans-serif" font-size="9" x="45" y="119.62">Boku dake ga Inai Machi</text><path fill="#fff" stroke="#000" d="M160 110h220v12H160z"/><text font-family="-apple-system,BlinkMacSystemFont,Segoe UI,Oxygen,Ubuntu,Cantarell,Fira Sans,Droid Sans,Helvetica Neue,sans-serif" font-size="9" x="165" y="119.62">3-gatsu no Lion</text><path fill="#fff" stroke="#000" d="M270 110h120v12H270z"/><text font-family="-apple-system,BlinkMacSystemFont,Segoe UI,Oxygen,Ubuntu,Cantarell,Fira Sans,Droid Sans,Helvetica Neue,sans-serif" font-size="9" x="275" y="119.62">No Game No Life</text><path fill="#fff" stroke="#000" d="M-70 125h260v12H-70z"/><text font-family="-apple-system,BlinkMacSystemFont,Segoe UI,Oxygen,Ubuntu,Cantarell,Fira Sans,Droid Sans,Helvetica Neue,sans-serif" font-size="9" x="5" y="134.62">3 Choume no Tama Uchi no Tama Shirimasen ka</text><path fill="#fff" stroke="#000" d="M20 125h360v12H20z"/><text font-family="-apple-system,BlinkMacSystemFont,Segoe UI,Oxygen,Ubuntu,Cantarell,Fira Sans,Droid Sans,Helvetica Neue,sans-serif" font-size="9" x="25" y="134.62">3 Choume no Tama Uchi no Tama Shirimasen ka</text><path fill="#fff" stroke="#000" d="M60 125h10v12H60z"/><text font-family="-apple-system,BlinkMacSystemFont,Segoe UI,Oxygen,Ubuntu,Cantarell,Fira Sans,Droid Sans,Helvetica Neue,sans-serif" font-size="9" x="75" y="134.62">3-Choume no Tama Special</text><path fill="#fff" stroke="#000" d="M-750 140H30v12h-780z"/><text font-family="-apple-system,BlinkMacSystemFont,Segoe UI,Oxygen,Ubuntu,Cantarell,Fira Sans,Droid Sans,Helvetica Neue,sans-serif" font-size="9" x="35" y="149.62">Holo no Graffiti</text><path fill="#fff" stroke="#000" d="M150 140h1140v12H150z"/><text font-family="-apple-system,BlinkMacSystemFont,Segoe UI,Oxygen,Ubuntu,Cantarell,Fira Sans,Droid Sans,Helvetica Neue,sans-serif" font-size="9" x="155" y="149.62">Holo no Graffiti</text><text font-family="-apple-system,BlinkMacSystemFont,Segoe UI,Oxygen,Ubuntu,Cantarell,Fira Sans,Droid Sans,Helvetica Neue,sans-serif" font-size="20" x="10" y="31.377">Animes planejados</text></g><text font-family="-apple-system,BlinkMacSystemFont,Segoe UI,Oxygen,Ubuntu,Cantarell,Fira Sans,Droid Sans,Helvetica Neue,sans-serif" font-size="5" fill="#333" x="310" y="12.344" text-anchor="end" opacity=".5">Atualizado em 01/08/2021</text></svg>