<svg xmlns="http://www.w3.org/2000/svg" viewBox="0 0 320 180"><path fill="#151f2e" d="M0 0h320v180H0z"/><style>@keyframes fade{0%,73%,to{opacity:0}75%,98%{opacity:1}}@keyframes fade2{0%,75%,to{opacity:0}77%,98%{opacity:1}}@keyframes score-draw{73%{stroke-dashoffset:305}72%,80%,to{stroke-dashoffset:0}}@keyframes episode-draw{73%{stroke-dashoffset:1171}72%,80%,to{stroke-dashoffset:0}}</style><g style="animation:fade ease-in 32s -24s infinite"><text font-family="-apple-system,BlinkMacSystemFont,Segoe UI,Oxygen,Ubuntu,Cantarell,Fira Sans,Droid Sans,Helvetica Neue,sans-serif" font-size="20" fill="#9fadbd" x="10" y="31.377">Mean score last week</text><path fill="none" stroke="#485464" stroke-dasharray="1" d="M10 170h300M10 158h300M10 146h300M10 134h300M10 122h300M10 110h300M10 98h300M10 86h300M10 74h300M10 62h300M10 50h300"/><path stroke="#0dadff" d="M10 81.2v-6M33.077 80v-3.6M56.154 83.6V72.8M79.231 87.2v-12M102.308 80V68M125.385 78.8v-18M171.538 76.4V57.2M194.615 82.4V59.6M263.846 84.8V64.4M286.923 81.2V65.6"/><path fill="none" stroke="#9fadbd" stroke-dasharray="305" marker-mid="url(#SvgjsMarker1000)" style="animation:score-draw ease-in 32s -24s infinite" d="M10 77.6h23.077l23.077-1.2 23.077 4.8 23.077-6 23.077-2.4 23.077-3.6 23.076 1.2 23.077 2.4 46.154 10.8 23.077-7.2 23.077-3.6L310 77.6"/><text font-family="-apple-system,BlinkMacSystemFont,Segoe UI,Oxygen,Ubuntu,Cantarell,Fira Sans,Droid Sans,Helvetica Neue,sans-serif" font-size="60" fill="#0dadff" stroke-width="5" stroke="#151f2e" paint-order="stroke" x="10" y="94.131">8.0</text><text font-family="-apple-system,BlinkMacSystemFont,Segoe UI,Oxygen,Ubuntu,Cantarell,Fira Sans,Droid Sans,Helvetica Neue,sans-serif" font-size="20" fill="#0dadff" stroke-width="5" stroke="#151f2e" paint-order="stroke" stroke-linejoin="round" x="15" y="116.377">↑ 2%</text></g><defs><marker markerWidth="3" markerHeight="3" refX="1.5" refY="1.5" viewBox="0 0 3 3" orient="auto" id="SvgjsMarker1000"><circle r="1.5" cx="1.5" cy="1.5" fill="#9fadbd"/></marker><marker markerWidth="3" markerHeight="3" refX="1.5" refY="1.5" viewBox="0 0 3 3" orient="auto" id="SvgjsMarker1001"><circle r="1.5" cx="1.5" cy="1.5" fill="#9fadbd"/></marker></defs><g style="animation:fade ease-in 32s -16s infinite"><text font-family="-apple-system,BlinkMacSystemFont,Segoe UI,Oxygen,Ubuntu,Cantarell,Fira Sans,Droid Sans,Helvetica Neue,sans-serif" font-size="20" fill="#9fadbd" x="10" y="31.377">Watched episodes last month</text><path fill="none" stroke="#485464" stroke-dasharray="1" d="M10 170h300M10 150h300M10 130h300M10 110h300M10 90h300M10 70h300M10 50h300"/><path fill="none" stroke="#9fadbd" stroke-dasharray="1171" marker-mid="url(#SvgjsMarker1001)" style="animation:episode-draw ease-in 32s -16s infinite" d="M10 170l10.345-20 10.345-20 10.344 20 10.345-40 10.345 40 10.345-40 10.345 60h10.345l10.344-40h10.345l10.345-80 10.345 100 10.345-40h10.345l10.344 20 10.345-40 10.345 40 10.345-60 10.345 40 10.345-40 10.344 40 10.345 40 10.345-40 10.345-20 10.345 80 10.345-20 10.344-60 10.345 40L310 150"/><text font-family="-apple-system,BlinkMacSystemFont,Segoe UI,Oxygen,Ubuntu,Cantarell,Fira Sans,Droid Sans,Helvetica Neue,sans-serif" font-size="60" fill="#0dadff" stroke-width="5" stroke="#151f2e" paint-order="stroke" x="10" y="94.131">68</text><text font-family="-apple-system,BlinkMacSystemFont,Segoe UI,Oxygen,Ubuntu,Cantarell,Fira Sans,Droid Sans,Helvetica Neue,sans-serif" font-size="20" fill="#0dadff" stroke-width="5" stroke="#151f2e" paint-order="stroke" stroke-linejoin="round" x="15" y="116.377">↑ 70%</text></g><g style="animation:fade ease-in 32s -8s infinite" font-family="-apple-system,BlinkMacSystemFont,Segoe UI,Oxygen,Ubuntu,Cantarell,Fira Sans,Droid Sans,Helvetica Neue,sans-serif" fill="#9fadbd"><text font-size="20" x="10" y="31.377">Top genres last two weeks</text><text font-size="15" x="10" y="66.033" style="animation:fade2 ease-in 32s -9s infinite"><tspan fill="#0dadff">1 </tspan><tspan>Comedy</tspan></text><text font-size="8" x="22" y="78.551" style="animation:fade2 ease-in 32s -8.5s infinite">38 episodes</text><text font-size="15" x="165" y="66.033" style="animation:fade2 ease-in 32s -8.75s infinite"><tspan fill="#0dadff">2 </tspan><tspan>Slice of Life</tspan></text><text font-size="8" x="177" y="78.551" style="animation:fade2 ease-in 32s -8.25s infinite">25 episodes</text><text font-size="15" x="10" y="106.033" style="animation:fade2 ease-in 32s -8.5s infinite"><tspan fill="#0dadff">3 </tspan><tspan>Supernatural</tspan></text><text font-size="8" x="22" y="118.551" style="animation:fade2 ease-in 32s -8s infinite">9 episodes</text><text font-size="15" x="165" y="106.033" style="animation:fade2 ease-in 32s -8.25s infinite"><tspan fill="#0dadff">3 </tspan><tspan>Romance</tspan></text><text font-size="8" x="177" y="118.551" style="animation:fade2 ease-in 32s -7.75s infinite">9 episodes</text><text font-size="15" x="10" y="146.033" style="animation:fade2 ease-in 32s -8s infinite"><tspan fill="#0dadff">5 </tspan><tspan>Action</tspan></text><text font-size="8" x="22" y="158.551" style="animation:fade2 ease-in 32s -7.5s infinite">6 episodes</text><text font-size="15" x="165" y="146.033" style="animation:fade2 ease-in 32s -7.75s infinite"><tspan fill="#0dadff">6 </tspan><tspan>Fantasy</tspan></text><text font-size="8" x="177" y="158.551" style="animation:fade2 ease-in 32s -7.25s infinite">4 episodes</text></g><g style="animation:fade ease-in 32s 0s infinite"><path stroke="#485464" d="M110 0v180"/><path stroke="#0dadff" d="M210 0v180"/><text font-family="-apple-system,BlinkMacSystemFont,Segoe UI,Oxygen,Ubuntu,Cantarell,Fira Sans,Droid Sans,Helvetica Neue,sans-serif" font-size="7" fill="#485464" x="5" y="174.482">2ND LAST WEEK</text><text font-family="-apple-system,BlinkMacSystemFont,Segoe UI,Oxygen,Ubuntu,Cantarell,Fira Sans,Droid Sans,Helvetica Neue,sans-serif" font-size="7" fill="#485464" x="115" y="174.482">LAST WEEK</text><text font-family="-apple-system,BlinkMacSystemFont,Segoe UI,Oxygen,Ubuntu,Cantarell,Fira Sans,Droid Sans,Helvetica Neue,sans-serif" font-size="7" fill="#485464" x="215" y="174.482">NEXT WEEK</text><path fill="#151f2e" stroke="#9fadbd" d="M-1710 50H290v14.4h-2000z"/><text font-family="-apple-system,BlinkMacSystemFont,Segoe UI,Oxygen,Ubuntu,Cantarell,Fira Sans,Droid Sans,Helvetica Neue,sans-serif" font-size="10.8" fill="#9fadbd" x="5" y="61.544">Atashin&apos;chi</text><path fill="#151f2e" stroke="#9fadbd" d="M-750 68H290v14.4H-750z"/><text font-family="-apple-system,BlinkMacSystemFont,Segoe UI,Oxygen,Ubuntu,Cantarell,Fira Sans,Droid Sans,Helvetica Neue,sans-serif" font-size="10.8" fill="#9fadbd" x="5" y="79.544">Bluey</text><path fill="#151f2e" stroke="#9fadbd" d="M290 68h4200v14.4H290z"/><text font-family="-apple-system,BlinkMacSystemFont,Segoe UI,Oxygen,Ubuntu,Cantarell,Fira Sans,Droid Sans,Helvetica Neue,sans-serif" font-size="10.8" fill="#9fadbd" x="296" y="79.544">Holo no Graffiti</text><path fill="#151f2e" stroke="#9fadbd" d="M-10 86h260v14.4H-10z"/><text font-family="-apple-system,BlinkMacSystemFont,Segoe UI,Oxygen,Ubuntu,Cantarell,Fira Sans,Droid Sans,Helvetica Neue,sans-serif" font-size="10.8" fill="#9fadbd" x="5" y="97.544">Hidamari Sketch x 365</text><path fill="#151f2e" stroke="#9fadbd" d="M250 86h60v14.4h-60zM310 86h460v14.4H310z"/><text font-family="-apple-system,BlinkMacSystemFont,Segoe UI,Oxygen,Ubuntu,Cantarell,Fira Sans,Droid Sans,Helvetica Neue,sans-serif" font-size="10.8" fill="#9fadbd" x="316" y="97.544">Clannad After Story</text><path fill="#151f2e" stroke="#9fadbd" d="M-170 104H90v14.4h-260z"/><text font-family="-apple-system,BlinkMacSystemFont,Segoe UI,Oxygen,Ubuntu,Cantarell,Fira Sans,Droid Sans,Helvetica Neue,sans-serif" font-size="10.8" fill="#9fadbd" x="5" y="115.544">Yofukashi no Uta</text><path fill="#151f2e" stroke="#9fadbd" d="M90 104h240v14.4H90z"/><text font-family="-apple-system,BlinkMacSystemFont,Segoe UI,Oxygen,Ubuntu,Cantarell,Fira Sans,Droid Sans,Helvetica Neue,sans-serif" font-size="10.8" fill="#9fadbd" x="96" y="115.544">Spy x Family</text><path fill="#151f2e" stroke="#9fadbd" d="M-250 122H70v14.4h-320z"/><text font-family="-apple-system,BlinkMacSystemFont,Segoe UI,Oxygen,Ubuntu,Cantarell,Fira Sans,Droid Sans,Helvetica Neue,sans-serif" font-size="10.8" fill="#9fadbd" x="5" y="133.544">Simoun</text><path fill="#151f2e" stroke="#9fadbd" d="M-90 122h240v14.4H-90z"/><text font-family="-apple-system,BlinkMacSystemFont,Segoe UI,Oxygen,Ubuntu,Cantarell,Fira Sans,Droid Sans,Helvetica Neue,sans-serif" font-size="10.8" fill="#9fadbd" x="5" y="133.544">Senpai ga Uzai Kouhai no Hanashi</text><path fill="#151f2e" stroke="#9fadbd" d="M10 140h120v14.4H10z"/><text font-family="-apple-system,BlinkMacSystemFont,Segoe UI,Oxygen,Ubuntu,Cantarell,Fira Sans,Droid Sans,Helvetica Neue,sans-serif" font-size="10.8" fill="#9fadbd" x="16" y="151.544">Witch Craft Works Specials</text><text font-family="-apple-system,BlinkMacSystemFont,Segoe UI,Oxygen,Ubuntu,Cantarell,Fira Sans,Droid Sans,Helvetica Neue,sans-serif" font-size="20" fill="#9fadbd" x="10" y="31.377">Planned anime</text></g><text font-family="-apple-system,BlinkMacSystemFont,Segoe UI,Oxygen,Ubuntu,Cantarell,Fira Sans,Droid Sans,Helvetica Neue,sans-serif" font-size="5" fill="#485464" x="310" y="12.344" text-anchor="end" opacity=".5">Updated at 07/06/2023</text></svg>