<svg xmlns="http://www.w3.org/2000/svg" viewBox="0 0 320 180"><path fill="#151f2e" d="M0 0h320v180H0z"/><style>@keyframes fade{0%,73%,to{opacity:0}75%,98%{opacity:1}}@keyframes fade2{0%,75%,to{opacity:0}77%,98%{opacity:1}}@keyframes score-draw{73%{stroke-dashoffset:311}72%,80%,to{stroke-dashoffset:0}}@keyframes episode-draw{73%{stroke-dashoffset:800}72%,80%,to{stroke-dashoffset:0}}</style><g style="animation:fade ease-in 32s -24s infinite"><text font-family="-apple-system,BlinkMacSystemFont,Segoe UI,Oxygen,Ubuntu,Cantarell,Fira Sans,Droid Sans,Helvetica Neue,sans-serif" font-size="20" fill="#9fadbd" x="10" y="31.377">Mean score last week</text><path fill="none" stroke="#485464" stroke-dasharray="1" d="M10 170h300M10 158h300M10 146h300M10 134h300M10 122h300M10 110h300M10 98h300M10 86h300M10 74h300M10 62h300M10 50h300"/><path stroke="#0dadff" d="M10 88.4V72.8M56.154 77.6v-4.8M79.231 88.4V71.6M102.308 80V66.8M148.462 92V77.6M171.538 84.8v-18M194.615 89.6v-24M217.692 80V63.2"/><path fill="none" stroke="#9fadbd" stroke-dasharray="311" marker-mid="url(#SvgjsMarker1000)" style="animation:score-draw ease-in 32s -24s infinite" d="M10 81.2l46.154-6 23.077 3.6 23.077-3.6 23.077-8.4 23.077 18 23.076-4.8 23.077-4.8 23.077-2.4 69.231 2.4L310 80"/><text font-family="-apple-system,BlinkMacSystemFont,Segoe UI,Oxygen,Ubuntu,Cantarell,Fira Sans,Droid Sans,Helvetica Neue,sans-serif" font-size="60" fill="#0dadff" stroke-width="5" stroke="#151f2e" paint-order="stroke" x="10" y="94.131">7.8</text><text font-family="-apple-system,BlinkMacSystemFont,Segoe UI,Oxygen,Ubuntu,Cantarell,Fira Sans,Droid Sans,Helvetica Neue,sans-serif" font-size="20" fill="#0dadff" stroke-width="5" stroke="#151f2e" paint-order="stroke" stroke-linejoin="round" x="15" y="116.377">↑ 2%</text></g><defs><marker markerWidth="3" markerHeight="3" refX="1.5" refY="1.5" viewBox="0 0 3 3" orient="auto" id="SvgjsMarker1000"><circle r="1.5" cx="1.5" cy="1.5" fill="#9fadbd"/></marker><marker markerWidth="3" markerHeight="3" refX="1.5" refY="1.5" viewBox="0 0 3 3" orient="auto" id="SvgjsMarker1001"><circle r="1.5" cx="1.5" cy="1.5" fill="#9fadbd"/></marker></defs><g style="animation:fade ease-in 32s -16s infinite"><text font-family="-apple-system,BlinkMacSystemFont,Segoe UI,Oxygen,Ubuntu,Cantarell,Fira Sans,Droid Sans,Helvetica Neue,sans-serif" font-size="20" fill="#9fadbd" x="10" y="31.377">Watched episodes last month</text><path fill="none" stroke="#485464" stroke-dasharray="1" d="M10 170h300M10 152.857h300M10 135.714h300M10 118.571h300M10 101.429h300M10 84.286h300M10 67.143h300M10 50h300"/><path fill="none" stroke="#9fadbd" stroke-dasharray="800" marker-mid="url(#SvgjsMarker1001)" style="animation:episode-draw ease-in 32s -16s infinite" d="M10 67.143h10.345L30.69 84.286l10.344 34.285H51.38l10.345-17.142L72.07 67.143l10.345 17.143h10.345l10.344 34.285h10.345l10.345-34.285L134.138 50l10.345 68.571 10.345-34.285 10.344 17.143h10.345L185.862 170l10.345-34.286 10.345-34.285 10.345 17.142 10.344 34.286 10.345-17.143 10.345-34.285h10.345 10.345L278.966 170h10.344l10.345-17.143H310"/><text font-family="-apple-system,BlinkMacSystemFont,Segoe UI,Oxygen,Ubuntu,Cantarell,Fira Sans,Droid Sans,Helvetica Neue,sans-serif" font-size="60" fill="#0dadff" stroke-width="5" stroke="#151f2e" paint-order="stroke" x="10" y="94.131">103</text><text font-family="-apple-system,BlinkMacSystemFont,Segoe UI,Oxygen,Ubuntu,Cantarell,Fira Sans,Droid Sans,Helvetica Neue,sans-serif" font-size="20" fill="#0dadff" stroke-width="5" stroke="#151f2e" paint-order="stroke" stroke-linejoin="round" x="15" y="116.377">↓ 5%</text></g><g style="animation:fade ease-in 32s -8s infinite" font-family="-apple-system,BlinkMacSystemFont,Segoe UI,Oxygen,Ubuntu,Cantarell,Fira Sans,Droid Sans,Helvetica Neue,sans-serif" fill="#9fadbd"><text font-size="20" x="10" y="31.377">Top genres last two weeks</text><text font-size="15" x="10" y="66.033" style="animation:fade2 ease-in 32s -9s infinite"><tspan fill="#0dadff">1 </tspan><tspan>Comedy</tspan></text><text font-size="8" x="22" y="78.551" style="animation:fade2 ease-in 32s -8.5s infinite">20 episodes</text><text font-size="15" x="165" y="66.033" style="animation:fade2 ease-in 32s -8.75s infinite"><tspan fill="#0dadff">2 </tspan><tspan>Slice of Life</tspan></text><text font-size="8" x="177" y="78.551" style="animation:fade2 ease-in 32s -8.25s infinite">15 episodes</text><text font-size="15" x="10" y="106.033" style="animation:fade2 ease-in 32s -8.5s infinite"><tspan fill="#0dadff">3 </tspan><tspan>Action</tspan></text><text font-size="8" x="22" y="118.551" style="animation:fade2 ease-in 32s -8s infinite">8 episodes</text><text font-size="15" x="165" y="106.033" style="animation:fade2 ease-in 32s -8.25s infinite"><tspan fill="#0dadff">4 </tspan><tspan>Sports</tspan></text><text font-size="8" x="177" y="118.551" style="animation:fade2 ease-in 32s -7.75s infinite">5 episodes</text><text font-size="15" x="10" y="146.033" style="animation:fade2 ease-in 32s -8s infinite"><tspan fill="#0dadff">4 </tspan><tspan>Romance</tspan></text><text font-size="8" x="22" y="158.551" style="animation:fade2 ease-in 32s -7.5s infinite">5 episodes</text><text font-size="15" x="165" y="146.033" style="animation:fade2 ease-in 32s -7.75s infinite"><tspan fill="#0dadff">6 </tspan><tspan>Adventure</tspan></text><text font-size="8" x="177" y="158.551" style="animation:fade2 ease-in 32s -7.25s infinite">3 episodes</text></g><g style="animation:fade ease-in 32s 0s infinite"><path stroke="#485464" d="M110 0v180"/><path stroke="#0dadff" d="M210 0v180"/><text font-family="-apple-system,BlinkMacSystemFont,Segoe UI,Oxygen,Ubuntu,Cantarell,Fira Sans,Droid Sans,Helvetica Neue,sans-serif" font-size="7" fill="#485464" x="5" y="174.482">2ND LAST WEEK</text><text font-family="-apple-system,BlinkMacSystemFont,Segoe UI,Oxygen,Ubuntu,Cantarell,Fira Sans,Droid Sans,Helvetica Neue,sans-serif" font-size="7" fill="#485464" x="115" y="174.482">LAST WEEK</text><text font-family="-apple-system,BlinkMacSystemFont,Segoe UI,Oxygen,Ubuntu,Cantarell,Fira Sans,Droid Sans,Helvetica Neue,sans-serif" font-size="7" fill="#485464" x="215" y="174.482">NEXT WEEK</text><path fill="#151f2e" stroke="#9fadbd" d="M63.535 50h12.121v10.286H63.535zM75.657 50h25.253v10.286H75.657z"/><path fill="#151f2e" stroke="#9fadbd" d="M87.778 50h12.121v10.286H87.778zM99.899 50h12.121v10.286H99.899zM112.02 50h13.131v10.286H112.02zM125.152 50h13.131v10.286h-13.131z"/><path fill="#151f2e" stroke="#9fadbd" d="M138.283 50h32.323v10.286h-32.323zM170.606 50h20.202v10.286h-20.202zM190.808 50h25.253v10.286h-25.253zM216.061 50h12.121v10.286h-12.121z"/><path fill="#151f2e" stroke="#9fadbd" d="M228.182 50h13.131v10.286h-13.131z"/><text font-family="-apple-system,BlinkMacSystemFont,Segoe UI,Oxygen,Ubuntu,Cantarell,Fira Sans,Droid Sans,Helvetica Neue,sans-serif" font-size="7.714" fill="#9fadbd" x="245.599" y="58.245">Tentai Senshi Sunred 2nd Season</text><path fill="#151f2e" stroke="#9fadbd" d="M62.525 62.857h14.141v10.286H62.525zM76.667 62.857h13.131v10.286H76.667zM89.798 62.857h24.242v10.286H89.798z"/><path fill="#151f2e" stroke="#9fadbd" d="M101.919 62.857h13.131v10.286h-13.131zM115.051 62.857h1.01v10.286h-1.01zM116.061 62.857h12.121v10.286h-12.121z"/><path fill="#151f2e" stroke="#9fadbd" d="M128.182 62.857h1.01v10.286h-1.01zM129.192 62.857h3.03v10.286h-3.03zM132.222 62.857h12.121v10.286h-12.121z"/><path fill="#151f2e" stroke="#9fadbd" d="M144.343 62.857h10.101v10.286h-10.101z"/><path fill="#151f2e" stroke="#9fadbd" d="M151.414 62.857h12.121v10.286h-12.121zM163.535 62.857h13.131v10.286h-13.131zM176.667 62.857h12.121v10.286h-12.121zM188.788 62.857h12.121v10.286h-12.121z"/><path fill="#151f2e" stroke="#9fadbd" d="M200.909 62.857h12.121v10.286h-12.121zM213.03 62.857h12.121v10.286H213.03zM225.152 62.857h32.323v10.286h-32.323z"/><text font-family="-apple-system,BlinkMacSystemFont,Segoe UI,Oxygen,Ubuntu,Cantarell,Fira Sans,Droid Sans,Helvetica Neue,sans-serif" font-size="7.714" fill="#9fadbd" x="261.76" y="71.103">Neko Neko Nihonshi 2nd Season</text><path fill="#151f2e" stroke="#9fadbd" d="M66.566 75.714h12.121V86H66.566zM78.687 75.714h85.859V86H78.687z"/><text font-family="-apple-system,BlinkMacSystemFont,Segoe UI,Oxygen,Ubuntu,Cantarell,Fira Sans,Droid Sans,Helvetica Neue,sans-serif" font-size="7.714" fill="#9fadbd" x="82.973" y="83.96">Chibi Maruko-chan</text><path fill="#151f2e" stroke="#9fadbd" d="M103.939 75.714h10.101V86h-10.101zM114.04 75.714h1.01V86h-1.01zM115.051 75.714h12.121V86h-12.121z"/><path fill="#151f2e" stroke="#9fadbd" d="M117.071 75.714h12.121V86h-12.121zM129.192 75.714h111.111V86H129.192z"/><text font-family="-apple-system,BlinkMacSystemFont,Segoe UI,Oxygen,Ubuntu,Cantarell,Fira Sans,Droid Sans,Helvetica Neue,sans-serif" font-size="7.714" fill="#9fadbd" x="133.478" y="83.96">Chibi Maruko-chan</text><path fill="#151f2e" stroke="#9fadbd" d="M154.444 75.714h12.121V86h-12.121zM166.566 75.714h6.061V86h-6.061z"/><path fill="#151f2e" stroke="#9fadbd" d="M172.626 75.714h25.253V86h-25.253z"/><path fill="#151f2e" stroke="#9fadbd" d="M184.747 75.714h1.01V86h-1.01zM185.758 75.714H307.98V86H185.758z"/><text font-family="-apple-system,BlinkMacSystemFont,Segoe UI,Oxygen,Ubuntu,Cantarell,Fira Sans,Droid Sans,Helvetica Neue,sans-serif" font-size="7.714" fill="#9fadbd" x="190.043" y="83.96">Chibi Maruko-chan</text><path fill="#151f2e" stroke="#9fadbd" d="M196.869 75.714h24.242V86h-24.242z"/><text font-family="-apple-system,BlinkMacSystemFont,Segoe UI,Oxygen,Ubuntu,Cantarell,Fira Sans,Droid Sans,Helvetica Neue,sans-serif" font-size="7.714" fill="#9fadbd" x="201.154" y="83.96">Kobato</text><path fill="#151f2e" stroke="#9fadbd" d="M202.929 75.714h131.313V86H202.929z"/><text font-family="-apple-system,BlinkMacSystemFont,Segoe UI,Oxygen,Ubuntu,Cantarell,Fira Sans,Droid Sans,Helvetica Neue,sans-serif" font-size="7.714" fill="#9fadbd" x="207.215" y="83.96">Chibi Maruko-chan</text><path fill="#151f2e" stroke="#9fadbd" d="M212.02 75.714h12.121V86H212.02z"/><path fill="#151f2e" stroke="#9fadbd" d="M224.141 75.714h4.04V86h-4.04zM228.182 75.714h8.081V86h-8.081z"/><text font-family="-apple-system,BlinkMacSystemFont,Segoe UI,Oxygen,Ubuntu,Cantarell,Fira Sans,Droid Sans,Helvetica Neue,sans-serif" font-size="7.714" fill="#9fadbd" x="240.548" y="83.96">Sono Bisque Doll wa Koi wo Suru</text><path fill="#151f2e" stroke="#9fadbd" d="M71.616 88.571h1.01v10.286h-1.01zM72.626 88.571h4.04v10.286h-4.04zM76.667 88.571h3.03v10.286h-3.03zM79.697 88.571h6.061v10.286h-6.061z"/><path fill="#151f2e" stroke="#9fadbd" d="M85.758 88.571h13.131v10.286H85.758zM98.889 88.571h12.121v10.286H98.889zM111.01 88.571h12.121v10.286H111.01zM123.131 88.571h12.121v10.286h-12.121zM135.253 88.571h12.121v10.286h-12.121zM147.374 88.571h12.121v10.286h-12.121zM159.495 88.571h12.121v10.286h-12.121zM171.616 88.571h18.182v10.286h-18.182z"/><path fill="#151f2e" stroke="#9fadbd" d="M177.677 88.571h7.071v10.286h-7.071z"/><path fill="#151f2e" stroke="#9fadbd" d="M184.747 88.571h13.131v10.286h-13.131z"/><path fill="#151f2e" stroke="#9fadbd" d="M187.778 88.571h13.131v10.286h-13.131z"/><path fill="#151f2e" stroke="#9fadbd" d="M193.838 88.571h6.061v10.286h-6.061zM199.899 88.571h4.04v10.286h-4.04zM203.939 88.571h12.121v10.286h-12.121z"/><path fill="#151f2e" stroke="#9fadbd" d="M210 88.571h12.121v10.286H210z"/><path fill="#151f2e" stroke="#9fadbd" d="M218.081 88.571h8.081v10.286h-8.081z"/><path fill="#151f2e" stroke="#9fadbd" d="M222.121 88.571h143.434v10.286H222.121z"/><text font-family="-apple-system,BlinkMacSystemFont,Segoe UI,Oxygen,Ubuntu,Cantarell,Fira Sans,Droid Sans,Helvetica Neue,sans-serif" font-size="7.714" fill="#9fadbd" x="226.407" y="96.817">Chibi Maruko-chan</text><path fill="#151f2e" stroke="#9fadbd" d="M68.586 101.429h13.131v10.286H68.586zM81.717 101.429h1.01v10.286h-1.01zM82.727 101.429h13.131v10.286H82.727zM95.859 101.429h12.121v10.286H95.859z"/><path fill="#151f2e" stroke="#9fadbd" d="M101.919 101.429h6.061v10.286h-6.061zM107.98 101.429h6.061v10.286h-6.061z"/><path fill="#151f2e" stroke="#9fadbd" d="M114.04 101.429h13.131v10.286H114.04zM127.172 101.429h12.121v10.286h-12.121zM139.293 101.429h11.111v10.286h-11.111zM150.404 101.429h13.131v10.286h-13.131z"/><text font-family="-apple-system,BlinkMacSystemFont,Segoe UI,Oxygen,Ubuntu,Cantarell,Fira Sans,Droid Sans,Helvetica Neue,sans-serif" font-size="7.714" fill="#9fadbd" x="167.821" y="109.674">Chihayafuru 2</text><path fill="#151f2e" stroke="#9fadbd" d="M157.475 101.429h22.222v10.286h-22.222z"/><path fill="#151f2e" stroke="#9fadbd" d="M168.586 101.429h10.101v10.286h-10.101z"/><path fill="#151f2e" stroke="#9fadbd" d="M174.646 101.429h6.061v10.286h-6.061zM180.707 101.429h2.02v10.286h-2.02zM182.727 101.429h12.121v10.286h-12.121z"/><path fill="#151f2e" stroke="#9fadbd" d="M188.788 101.429h12.121v10.286h-12.121z"/><path fill="#151f2e" stroke="#9fadbd" d="M194.848 101.429h2.02v10.286h-2.02zM196.869 101.429h4.04v10.286h-4.04z"/><path fill="#151f2e" stroke="#9fadbd" d="M198.889 101.429h12.121v10.286h-12.121z"/><path fill="#151f2e" stroke="#9fadbd" d="M204.949 101.429h6.061v10.286h-6.061z"/><path fill="#151f2e" stroke="#9fadbd" d="M211.01 101.429h4.04v10.286h-4.04zM215.051 101.429h12.121v10.286h-12.121z"/><text font-family="-apple-system,BlinkMacSystemFont,Segoe UI,Oxygen,Ubuntu,Cantarell,Fira Sans,Droid Sans,Helvetica Neue,sans-serif" font-size="7.714" fill="#9fadbd" x="231.457" y="109.674">Adachi to Shimamura</text><path fill="#151f2e" stroke="#9fadbd" d="M221.111 101.429h12.121v10.286h-12.121z"/><text font-family="-apple-system,BlinkMacSystemFont,Segoe UI,Oxygen,Ubuntu,Cantarell,Fira Sans,Droid Sans,Helvetica Neue,sans-serif" font-size="7.714" fill="#9fadbd" x="237.518" y="109.674">Super Cub</text><path fill="#151f2e" stroke="#9fadbd" d="M118.081 114.286h2.02v10.286h-2.02z"/><text font-family="-apple-system,BlinkMacSystemFont,Segoe UI,Oxygen,Ubuntu,Cantarell,Fira Sans,Droid Sans,Helvetica Neue,sans-serif" font-size="7.714" fill="#9fadbd" x="124.387" y="122.531">Kuma Miko Specials</text><path fill="#151f2e" stroke="#9fadbd" d="M166.566 114.286h1.01v10.286h-1.01z"/><text font-family="-apple-system,BlinkMacSystemFont,Segoe UI,Oxygen,Ubuntu,Cantarell,Fira Sans,Droid Sans,Helvetica Neue,sans-serif" font-size="7.714" fill="#9fadbd" x="171.861" y="122.531">Koe no Katachi</text><path fill="#151f2e" stroke="#9fadbd" d="M212.02 114.286h16.162v10.286H212.02z"/><text font-family="-apple-system,BlinkMacSystemFont,Segoe UI,Oxygen,Ubuntu,Cantarell,Fira Sans,Droid Sans,Helvetica Neue,sans-serif" font-size="7.714" fill="#9fadbd" x="232.468" y="122.531">Ore no Imouto ga Konnani Kawaii Wake ga Nai SD Chara ni Yoru Character Commentary</text><path fill="#151f2e" stroke="#9fadbd" d="M131.212 127.143h1.01v10.286h-1.01z"/><text font-family="-apple-system,BlinkMacSystemFont,Segoe UI,Oxygen,Ubuntu,Cantarell,Fira Sans,Droid Sans,Helvetica Neue,sans-serif" font-size="7.714" fill="#9fadbd" x="136.508" y="135.388">Seitokai Yakuindomo The Movie</text><path fill="#151f2e" stroke="#9fadbd" d="M146.364 127.143h1.01v10.286h-1.01z"/><text font-family="-apple-system,BlinkMacSystemFont,Segoe UI,Oxygen,Ubuntu,Cantarell,Fira Sans,Droid Sans,Helvetica Neue,sans-serif" font-size="7.714" fill="#9fadbd" x="151.659" y="135.388">Seitokai Yakuindomo The Movie 2</text><path fill="#151f2e" stroke="#9fadbd" d="M73.636 140h2.02v10.286h-2.02z"/><path fill="#151f2e" stroke="#9fadbd" d="M74.646 140h3.03v10.286h-3.03zM77.677 140H207.98v10.286H77.677z"/><text font-family="-apple-system,BlinkMacSystemFont,Segoe UI,Oxygen,Ubuntu,Cantarell,Fira Sans,Droid Sans,Helvetica Neue,sans-serif" font-size="7.714" fill="#9fadbd" x="81.962" y="148.245">Holo no Graffiti</text><path fill="#151f2e" stroke="#9fadbd" d="M107.98 140h1.01v10.286h-1.01z"/><text font-family="-apple-system,BlinkMacSystemFont,Segoe UI,Oxygen,Ubuntu,Cantarell,Fira Sans,Droid Sans,Helvetica Neue,sans-serif" font-size="7.714" fill="#9fadbd" x="113.276" y="148.245">Paprika</text><text font-family="-apple-system,BlinkMacSystemFont,Segoe UI,Oxygen,Ubuntu,Cantarell,Fira Sans,Droid Sans,Helvetica Neue,sans-serif" font-size="20" fill="#9fadbd" x="10" y="31.377">Planned anime</text></g><text font-family="-apple-system,BlinkMacSystemFont,Segoe UI,Oxygen,Ubuntu,Cantarell,Fira Sans,Droid Sans,Helvetica Neue,sans-serif" font-size="5" fill="#485464" x="310" y="12.344" text-anchor="end" opacity=".5">Updated at 26/06/2022</text></svg>