<svg xmlns="http://www.w3.org/2000/svg" viewBox="0 0 320 180"><path fill="#151f2e" d="M0 0h320v180H0z"/><style>@keyframes fade{0%,73%,to{opacity:0}75%,98%{opacity:1}}@keyframes fade2{0%,75%,to{opacity:0}77%,98%{opacity:1}}@keyframes score-draw{73%{stroke-dashoffset:308}72%,80%,to{stroke-dashoffset:0}}@keyframes episode-draw{73%{stroke-dashoffset:948}72%,80%,to{stroke-dashoffset:0}}</style><g style="animation:fade ease-in 32s -24s infinite"><text font-family="-apple-system,BlinkMacSystemFont,Segoe UI,Oxygen,Ubuntu,Cantarell,Fira Sans,Droid Sans,Helvetica Neue,sans-serif" font-size="20" fill="#9fadbd" x="10" y="31.377">Mean score last week</text><path fill="none" stroke="#485464" stroke-dasharray="1" d="M10 170h300M10 158h300M10 146h300M10 134h300M10 122h300M10 110h300M10 98h300M10 86h300M10 74h300M10 62h300M10 50h300"/><path stroke="#0dadff" d="M10 77.6V66.8M33.077 65.6v-1.2M79.231 83.6v-18M102.308 78.8v-3.6M125.385 80V65.6M148.462 78.8V68M171.538 75.2V68M194.615 83.6V72.8M217.692 76.4V68M240.769 77.6v-8.4M263.846 82.4V68M286.923 80V64.4M310 77.6v-4.8"/><path fill="none" stroke="#9fadbd" stroke-dasharray="308" marker-mid="url(#SvgjsMarker1000)" style="animation:score-draw ease-in 32s -24s infinite" d="M10 70.4l23.077-6 23.077 13.2 23.077-2.4 23.077 2.4 23.077-7.2 23.077 4.8 23.076-3.6 23.077 6 23.077-3.6h23.077l23.077 2.4 23.077-3.6L310 75.2"/><text font-family="-apple-system,BlinkMacSystemFont,Segoe UI,Oxygen,Ubuntu,Cantarell,Fira Sans,Droid Sans,Helvetica Neue,sans-serif" font-size="60" fill="#0dadff" stroke-width="5" stroke="#151f2e" paint-order="stroke" x="10" y="94.131">7.9</text><text font-family="-apple-system,BlinkMacSystemFont,Segoe UI,Oxygen,Ubuntu,Cantarell,Fira Sans,Droid Sans,Helvetica Neue,sans-serif" font-size="20" fill="#0dadff" stroke-width="5" stroke="#151f2e" paint-order="stroke" stroke-linejoin="round" x="15" y="116.377">↓ 2%</text></g><defs><marker markerWidth="3" markerHeight="3" refX="1.5" refY="1.5" viewBox="0 0 3 3" orient="auto" id="SvgjsMarker1000"><circle r="1.5" cx="1.5" cy="1.5" fill="#9fadbd"/></marker><marker markerWidth="3" markerHeight="3" refX="1.5" refY="1.5" viewBox="0 0 3 3" orient="auto" id="SvgjsMarker1001"><circle r="1.5" cx="1.5" cy="1.5" fill="#9fadbd"/></marker></defs><g style="animation:fade ease-in 32s -16s infinite"><text font-family="-apple-system,BlinkMacSystemFont,Segoe UI,Oxygen,Ubuntu,Cantarell,Fira Sans,Droid Sans,Helvetica Neue,sans-serif" font-size="20" fill="#9fadbd" x="10" y="31.377">Watched episodes last month</text><path fill="none" stroke="#485464" stroke-dasharray="1" d="M10 170h300M10 158h300M10 146h300M10 134h300M10 122h300M10 110h300M10 98h300M10 86h300M10 74h300M10 62h300M10 50h300"/><path fill="none" stroke="#9fadbd" stroke-dasharray="948" marker-mid="url(#SvgjsMarker1001)" style="animation:episode-draw ease-in 32s -16s infinite" d="M10 158l10.345-48L30.69 50l10.344 72 10.345 24 10.345-12 10.345 12 10.345-36 10.345 24 10.344-60 10.345 48h10.345l10.345 24 10.345-24 10.345 48 10.344-24 10.345-24 10.345 24 10.345 12 10.345-60 10.345 36 10.344-12h10.345l10.345 24 10.345-24 10.345-48 10.345 48 10.344-24 10.345 12H310"/><text font-family="-apple-system,BlinkMacSystemFont,Segoe UI,Oxygen,Ubuntu,Cantarell,Fira Sans,Droid Sans,Helvetica Neue,sans-serif" font-size="60" fill="#0dadff" stroke-width="5" stroke="#151f2e" paint-order="stroke" x="10" y="94.131">117</text><text font-family="-apple-system,BlinkMacSystemFont,Segoe UI,Oxygen,Ubuntu,Cantarell,Fira Sans,Droid Sans,Helvetica Neue,sans-serif" font-size="20" fill="#0dadff" stroke-width="5" stroke="#151f2e" paint-order="stroke" stroke-linejoin="round" x="15" y="116.377">↓ 25%</text></g><g style="animation:fade ease-in 32s -8s infinite" font-family="-apple-system,BlinkMacSystemFont,Segoe UI,Oxygen,Ubuntu,Cantarell,Fira Sans,Droid Sans,Helvetica Neue,sans-serif" fill="#9fadbd"><text font-size="20" x="10" y="31.377">Top genres last two weeks</text><text font-size="15" x="10" y="66.033" style="animation:fade2 ease-in 32s -9s infinite"><tspan fill="#0dadff">1 </tspan><tspan>Comedy</tspan></text><text font-size="8" x="22" y="78.551" style="animation:fade2 ease-in 32s -8.5s infinite">31 episodes</text><text font-size="15" x="165" y="66.033" style="animation:fade2 ease-in 32s -8.75s infinite"><tspan fill="#0dadff">2 </tspan><tspan>Slice of Life</tspan></text><text font-size="8" x="177" y="78.551" style="animation:fade2 ease-in 32s -8.25s infinite">30 episodes</text><text font-size="15" x="10" y="106.033" style="animation:fade2 ease-in 32s -8.5s infinite"><tspan fill="#0dadff">3 </tspan><tspan>Adventure</tspan></text><text font-size="8" x="22" y="118.551" style="animation:fade2 ease-in 32s -8s infinite">17 episodes</text><text font-size="15" x="165" y="106.033" style="animation:fade2 ease-in 32s -8.25s infinite"><tspan fill="#0dadff">4 </tspan><tspan>Romance</tspan></text><text font-size="8" x="177" y="118.551" style="animation:fade2 ease-in 32s -7.75s infinite">12 episodes</text><text font-size="15" x="10" y="146.033" style="animation:fade2 ease-in 32s -8s infinite"><tspan fill="#0dadff">5 </tspan><tspan>Fantasy</tspan></text><text font-size="8" x="22" y="158.551" style="animation:fade2 ease-in 32s -7.5s infinite">11 episodes</text><text font-size="15" x="165" y="146.033" style="animation:fade2 ease-in 32s -7.75s infinite"><tspan fill="#0dadff">6 </tspan><tspan>Drama</tspan></text><text font-size="8" x="177" y="158.551" style="animation:fade2 ease-in 32s -7.25s infinite">10 episodes</text></g><g style="animation:fade ease-in 32s 0s infinite"><path stroke="#485464" d="M110 0v180"/><path stroke="#0dadff" d="M210 0v180"/><text font-family="-apple-system,BlinkMacSystemFont,Segoe UI,Oxygen,Ubuntu,Cantarell,Fira Sans,Droid Sans,Helvetica Neue,sans-serif" font-size="7" fill="#485464" x="5" y="174.482">2ND LAST WEEK</text><text font-family="-apple-system,BlinkMacSystemFont,Segoe UI,Oxygen,Ubuntu,Cantarell,Fira Sans,Droid Sans,Helvetica Neue,sans-serif" font-size="7" fill="#485464" x="115" y="174.482">LAST WEEK</text><text font-family="-apple-system,BlinkMacSystemFont,Segoe UI,Oxygen,Ubuntu,Cantarell,Fira Sans,Droid Sans,Helvetica Neue,sans-serif" font-size="7" fill="#485464" x="215" y="174.482">NEXT WEEK</text><path fill="#151f2e" stroke="#9fadbd" d="M70.526 50h32.895v10.286H70.526zM103.421 50h42.105v10.286h-42.105z"/><text font-family="-apple-system,BlinkMacSystemFont,Segoe UI,Oxygen,Ubuntu,Cantarell,Fira Sans,Droid Sans,Helvetica Neue,sans-serif" font-size="7.714" fill="#9fadbd" x="149.812" y="58.245">Kuromajo-san ga Tooru!!</text><path fill="#151f2e" stroke="#9fadbd" d="M123.158 50H135v10.286h-11.842zM135 50h31.579v10.286H135zM166.579 50h1.316v10.286h-1.316z"/><path fill="#151f2e" stroke="#9fadbd" d="M167.895 50h34.211v10.286h-34.211z"/><path fill="#151f2e" stroke="#9fadbd" d="M185 50h15.789v10.286H185zM200.789 50h78.947v10.286h-78.947z"/><text font-family="-apple-system,BlinkMacSystemFont,Segoe UI,Oxygen,Ubuntu,Cantarell,Fira Sans,Droid Sans,Helvetica Neue,sans-serif" font-size="7.714" fill="#9fadbd" x="205.075" y="58.245">Kuromajo-san ga Tooru!!</text><path fill="#151f2e" stroke="#9fadbd" d="M219.211 50H235v10.286h-15.789zM235 50h17.105v10.286H235zM252.105 50H260v10.286h-7.895zM260 50h2.632v10.286H260zM262.632 50h18.421v10.286h-18.421z"/><text font-family="-apple-system,BlinkMacSystemFont,Segoe UI,Oxygen,Ubuntu,Cantarell,Fira Sans,Droid Sans,Helvetica Neue,sans-serif" font-size="7.714" fill="#9fadbd" x="285.338" y="58.245">Super Seisyun Brothers</text><path fill="#151f2e" stroke="#9fadbd" d="M63.947 62.857h15.789v10.286H63.947zM79.737 62.857h15.789v10.286H79.737zM95.526 62.857h17.105v10.286H95.526zM112.632 62.857h15.789v10.286h-15.789zM128.421 62.857h15.789v10.286h-15.789zM144.211 62.857H210v10.286h-65.789z"/><text font-family="-apple-system,BlinkMacSystemFont,Segoe UI,Oxygen,Ubuntu,Cantarell,Fira Sans,Droid Sans,Helvetica Neue,sans-serif" font-size="7.714" fill="#9fadbd" x="148.496" y="71.103">Chibi☆Devi!</text><path fill="#151f2e" stroke="#9fadbd" d="M177.105 62.857h60.526v10.286h-60.526z"/><text font-family="-apple-system,BlinkMacSystemFont,Segoe UI,Oxygen,Ubuntu,Cantarell,Fira Sans,Droid Sans,Helvetica Neue,sans-serif" font-size="7.714" fill="#9fadbd" x="241.917" y="71.103">Kuromajo-san ga Tooru!!</text><path fill="#151f2e" stroke="#9fadbd" d="M195.526 62.857h98.684v10.286h-98.684z"/><text font-family="-apple-system,BlinkMacSystemFont,Segoe UI,Oxygen,Ubuntu,Cantarell,Fira Sans,Droid Sans,Helvetica Neue,sans-serif" font-size="7.714" fill="#9fadbd" x="199.812" y="71.103">Chibi☆Devi!</text><path fill="#151f2e" stroke="#9fadbd" d="M228.421 62.857h15.789v10.286h-15.789zM244.211 62.857H260v10.286h-15.789zM260 62.857h15.789v10.286H260zM275.789 62.857h15.789v10.286h-15.789z"/><text font-family="-apple-system,BlinkMacSystemFont,Segoe UI,Oxygen,Ubuntu,Cantarell,Fira Sans,Droid Sans,Helvetica Neue,sans-serif" font-size="7.714" fill="#9fadbd" x="295.865" y="71.103">Aiura</text><path fill="#151f2e" stroke="#9fadbd" d="M71.842 75.714h6.579V86h-6.579zM78.421 75.714H94.21V86H78.421zM94.211 75.714h1.316V86h-1.316z"/><path fill="#151f2e" stroke="#9fadbd" d="M95.526 75.714h15.789V86H95.526zM111.316 75.714h15.789V86h-15.789zM127.105 75.714h15.789V86h-15.789zM142.895 75.714h15.789V86h-15.789z"/><text font-family="-apple-system,BlinkMacSystemFont,Segoe UI,Oxygen,Ubuntu,Cantarell,Fira Sans,Droid Sans,Helvetica Neue,sans-serif" font-size="7.714" fill="#9fadbd" x="147.18" y="83.96">MM!</text><path fill="#151f2e" stroke="#9fadbd" d="M158.684 75.714h43.421V86h-43.421z"/><text font-family="-apple-system,BlinkMacSystemFont,Segoe UI,Oxygen,Ubuntu,Cantarell,Fira Sans,Droid Sans,Helvetica Neue,sans-serif" font-size="7.714" fill="#9fadbd" x="206.391" y="83.96">Chibi Maruko-chan</text><path fill="#151f2e" stroke="#9fadbd" d="M162.632 75.714h1.316V86h-1.316z"/><path fill="#151f2e" stroke="#9fadbd" d="M163.947 75.714h14.474V86h-14.474zM178.421 75.714h14.474V86h-14.474zM192.895 75.714h50V86h-50z"/><text font-family="-apple-system,BlinkMacSystemFont,Segoe UI,Oxygen,Ubuntu,Cantarell,Fira Sans,Droid Sans,Helvetica Neue,sans-serif" font-size="7.714" fill="#9fadbd" x="197.18" y="83.96">Shirokuma Cafe</text><path fill="#151f2e" stroke="#9fadbd" d="M208.684 75.714h17.105V86h-17.105zM225.789 75.714h78.947V86h-78.947z"/><text font-family="-apple-system,BlinkMacSystemFont,Segoe UI,Oxygen,Ubuntu,Cantarell,Fira Sans,Droid Sans,Helvetica Neue,sans-serif" font-size="7.714" fill="#9fadbd" x="230.075" y="83.96">Chibi Maruko-chan</text><path fill="#151f2e" stroke="#9fadbd" d="M258.684 75.714h5.263V86h-5.263zM263.947 75.714h15.789V86h-15.789zM279.737 75.714h111.842V86H279.737z"/><text font-family="-apple-system,BlinkMacSystemFont,Segoe UI,Oxygen,Ubuntu,Cantarell,Fira Sans,Droid Sans,Helvetica Neue,sans-serif" font-size="7.714" fill="#9fadbd" x="284.023" y="83.96">Chibi Maruko-chan</text><path fill="#151f2e" stroke="#9fadbd" d="M66.579 88.571h15.789v10.286H66.579zM82.368 88.571h34.211v10.286H82.368z"/><path fill="#151f2e" stroke="#9fadbd" d="M99.474 88.571h17.105v10.286H99.474z"/><path fill="#151f2e" stroke="#9fadbd" d="M116.579 88.571h14.474v10.286h-14.474zM131.053 88.571h1.316v10.286h-1.316z"/><path fill="#151f2e" stroke="#9fadbd" d="M132.368 88.571h15.789v10.286h-15.789zM148.158 88.571h15.789v10.286h-15.789zM163.947 88.571h31.579v10.286h-31.579z"/><text font-family="-apple-system,BlinkMacSystemFont,Segoe UI,Oxygen,Ubuntu,Cantarell,Fira Sans,Droid Sans,Helvetica Neue,sans-serif" font-size="7.714" fill="#9fadbd" x="199.812" y="96.817">Carole e Tuesday</text><path fill="#151f2e" stroke="#9fadbd" d="M179.737 88.571h6.579v10.286h-6.579zM186.316 88.571h17.105v10.286h-17.105zM203.421 88.571h1.316v10.286h-1.316zM204.737 88.571h17.105v10.286h-17.105zM221.842 88.571h14.474v10.286h-14.474z"/><path fill="#151f2e" stroke="#9fadbd" d="M235 88.571h65.789v10.286H235z"/><text font-family="-apple-system,BlinkMacSystemFont,Segoe UI,Oxygen,Ubuntu,Cantarell,Fira Sans,Droid Sans,Helvetica Neue,sans-serif" font-size="7.714" fill="#9fadbd" x="239.286" y="96.817">Shirokuma Cafe</text><path fill="#151f2e" stroke="#9fadbd" d="M250.789 88.571h17.105v10.286h-17.105zM267.895 88.571h7.895v10.286h-7.895z"/><path fill="#151f2e" stroke="#9fadbd" d="M275.789 88.571h3.947v10.286h-3.947zM279.737 88.571h15.789v10.286h-15.789z"/><text font-family="-apple-system,BlinkMacSystemFont,Segoe UI,Oxygen,Ubuntu,Cantarell,Fira Sans,Droid Sans,Helvetica Neue,sans-serif" font-size="7.714" fill="#9fadbd" x="299.812" y="96.817">Imouto sae Ireba Ii</text><path fill="#151f2e" stroke="#9fadbd" d="M69.211 101.429h17.105v10.286H69.211zM86.316 101.429h39.474v10.286H86.316z"/><path fill="#151f2e" stroke="#9fadbd" d="M90.263 101.429h17.105v10.286H90.263z"/><path fill="#151f2e" stroke="#9fadbd" d="M107.368 101.429h15.789v10.286h-15.789zM123.158 101.429h34.211v10.286h-34.211z"/><path fill="#151f2e" stroke="#9fadbd" d="M140.263 101.429h15.789v10.286h-15.789zM156.053 101.429h2.632v10.286h-2.632z"/><path fill="#151f2e" stroke="#9fadbd" d="M158.684 101.429h28.947v10.286h-28.947z"/><text font-family="-apple-system,BlinkMacSystemFont,Segoe UI,Oxygen,Ubuntu,Cantarell,Fira Sans,Droid Sans,Helvetica Neue,sans-serif" font-size="7.714" fill="#9fadbd" x="191.917" y="109.674">Shigatsu wa Kimi no Uso</text><path fill="#151f2e" stroke="#9fadbd" d="M173.158 101.429h10.526v10.286h-10.526z"/><path fill="#151f2e" stroke="#9fadbd" d="M178.421 101.429h17.105v10.286h-17.105zM195.526 101.429H210v10.286h-14.474zM210 101.429h15.789v10.286H210zM225.789 101.429h28.947v10.286h-28.947z"/><path fill="#151f2e" stroke="#9fadbd" d="M240.263 101.429h15.789v10.286h-15.789zM256.053 101.429h15.789v10.286h-15.789zM271.842 101.429h15.789v10.286h-15.789z"/><text font-family="-apple-system,BlinkMacSystemFont,Segoe UI,Oxygen,Ubuntu,Cantarell,Fira Sans,Droid Sans,Helvetica Neue,sans-serif" font-size="7.714" fill="#9fadbd" x="291.917" y="109.674">Sewayaki Kitsune no Senko-san</text><path fill="#151f2e" stroke="#9fadbd" d="M107.368 114.286h17.105v10.286h-17.105z"/><text font-family="-apple-system,BlinkMacSystemFont,Segoe UI,Oxygen,Ubuntu,Cantarell,Fira Sans,Droid Sans,Helvetica Neue,sans-serif" font-size="7.714" fill="#9fadbd" x="128.759" y="122.531">Youjo Shachou</text><path fill="#151f2e" stroke="#9fadbd" d="M135 114.286h1.316v10.286H135z"/><path fill="#151f2e" stroke="#9fadbd" d="M136.316 114.286h34.211v10.286h-34.211z"/><path fill="#151f2e" stroke="#9fadbd" d="M145.526 114.286h15.789v10.286h-15.789z"/><text font-family="-apple-system,BlinkMacSystemFont,Segoe UI,Oxygen,Ubuntu,Cantarell,Fira Sans,Droid Sans,Helvetica Neue,sans-serif" font-size="7.714" fill="#9fadbd" x="165.602" y="122.531">Hentatsu (TV)</text><path fill="#151f2e" stroke="#9fadbd" d="M167.895 114.286h2.632v10.286h-2.632zM171.842 114.286h7.895v10.286h-7.895zM181.053 114.286H185v10.286h-3.947zM186.316 114.286h1.316v10.286h-1.316zM188.947 114.286h15.789v10.286h-15.789z"/><path fill="#151f2e" stroke="#9fadbd" d="M195.526 114.286h34.211v10.286h-34.211z"/><text font-family="-apple-system,BlinkMacSystemFont,Segoe UI,Oxygen,Ubuntu,Cantarell,Fira Sans,Droid Sans,Helvetica Neue,sans-serif" font-size="7.714" fill="#9fadbd" x="234.023" y="122.531">3 Choume no Tama Uchi no Tama Shirimasen ka</text><path fill="#151f2e" stroke="#9fadbd" d="M207.368 114.286h47.368v10.286h-47.368z"/><text font-family="-apple-system,BlinkMacSystemFont,Segoe UI,Oxygen,Ubuntu,Cantarell,Fira Sans,Droid Sans,Helvetica Neue,sans-serif" font-size="7.714" fill="#9fadbd" x="259.023" y="122.531">3 Choume no Tama Uchi no Tama Shirimasen ka</text><path fill="#151f2e" stroke="#9fadbd" d="M212.632 114.286h1.316v10.286h-1.316z"/><text font-family="-apple-system,BlinkMacSystemFont,Segoe UI,Oxygen,Ubuntu,Cantarell,Fira Sans,Droid Sans,Helvetica Neue,sans-serif" font-size="7.714" fill="#9fadbd" x="218.233" y="122.531">3-Choume no Tama Special</text><path fill="#151f2e" stroke="#9fadbd" d="M149.474 127.143h1.316v10.286h-1.316z"/><text font-family="-apple-system,BlinkMacSystemFont,Segoe UI,Oxygen,Ubuntu,Cantarell,Fira Sans,Droid Sans,Helvetica Neue,sans-serif" font-size="7.714" fill="#9fadbd" x="155.075" y="135.388">Heya Camp△ Sauna to Gohan to Sanrin Bike</text><path fill="#151f2e" stroke="#9fadbd" d="M106.053 140h111.842v10.286H106.053z"/><text font-family="-apple-system,BlinkMacSystemFont,Segoe UI,Oxygen,Ubuntu,Cantarell,Fira Sans,Droid Sans,Helvetica Neue,sans-serif" font-size="7.714" fill="#9fadbd" x="110.338" y="148.245">Holo no Graffiti</text><text font-family="-apple-system,BlinkMacSystemFont,Segoe UI,Oxygen,Ubuntu,Cantarell,Fira Sans,Droid Sans,Helvetica Neue,sans-serif" font-size="20" fill="#9fadbd" x="10" y="31.377">Planned anime</text></g><text font-family="-apple-system,BlinkMacSystemFont,Segoe UI,Oxygen,Ubuntu,Cantarell,Fira Sans,Droid Sans,Helvetica Neue,sans-serif" font-size="5" fill="#485464" x="310" y="12.344" text-anchor="end" opacity=".5">Updated at 18/07/2021</text></svg>