<svg xmlns="http://www.w3.org/2000/svg" viewBox="0 0 320 180"><path fill="#fff" d="M0 0h320v180H0z"/><style>@keyframes fade{0%,73%,to{opacity:0}75%,98%{opacity:1}}@keyframes fade2{0%,75%,to{opacity:0}77%,98%{opacity:1}}@keyframes score-draw{73%{stroke-dashoffset:321}72%,80%,to{stroke-dashoffset:0}}@keyframes episode-draw{73%{stroke-dashoffset:1144}72%,80%,to{stroke-dashoffset:0}}</style><g style="animation:fade ease-in 32s -24s infinite"><text font-family="-apple-system,BlinkMacSystemFont,Segoe UI,Oxygen,Ubuntu,Cantarell,Fira Sans,Droid Sans,Helvetica Neue,sans-serif" font-size="20" x="10" y="31.377">Nota média na última semana</text><path fill="none" stroke="#333" stroke-dasharray="1" d="M10 170h300M10 158h300M10 146h300M10 134h300M10 122h300M10 110h300M10 98h300M10 86h300M10 74h300M10 62h300M10 50h300"/><path stroke="#df6300" d="M10 87.2V64.4M33.077 80v-2.4M56.154 87.2V65.6M79.231 88.4V77.6M102.308 80v-3.6M171.538 89.6V64.4M240.769 96.8V64.4M263.846 94.4v-30M286.923 111.2V71.6"/><path fill="none" stroke="#000" stroke-dasharray="321" marker-mid="url(#SvgjsMarker1002)" style="animation:score-draw ease-in 32s -24s infinite" d="M10 77.6l23.077 1.2 23.077-2.4 23.077 6 23.077-3.6h23.077l23.077-9.6 23.076 9.6 46.154-3.6 23.077 9.6 23.077-4.8 23.077 8.4L310 63.2"/><text font-family="-apple-system,BlinkMacSystemFont,Segoe UI,Oxygen,Ubuntu,Cantarell,Fira Sans,Droid Sans,Helvetica Neue,sans-serif" font-size="60" fill="#df6300" stroke-width="5" stroke="#fff" paint-order="stroke" x="10" y="94.131">7.4</text><text font-family="-apple-system,BlinkMacSystemFont,Segoe UI,Oxygen,Ubuntu,Cantarell,Fira Sans,Droid Sans,Helvetica Neue,sans-serif" font-size="20" fill="#df6300" stroke-width="5" stroke="#fff" paint-order="stroke" stroke-linejoin="round" x="15" y="116.377">↓ 4%</text></g><defs><marker markerWidth="3" markerHeight="3" refX="1.5" refY="1.5" viewBox="0 0 3 3" orient="auto" id="SvgjsMarker1002"><circle r="1.5" cx="1.5" cy="1.5"/></marker><marker markerWidth="3" markerHeight="3" refX="1.5" refY="1.5" viewBox="0 0 3 3" orient="auto" id="SvgjsMarker1003"><circle r="1.5" cx="1.5" cy="1.5"/></marker></defs><g style="animation:fade ease-in 32s -16s infinite"><text font-family="-apple-system,BlinkMacSystemFont,Segoe UI,Oxygen,Ubuntu,Cantarell,Fira Sans,Droid Sans,Helvetica Neue,sans-serif" font-size="20" x="10" y="31.377">Episódios vistos no último mês</text><path fill="none" stroke="#333" stroke-dasharray="1" d="M10 170h300M10 160.769h300M10 151.538h300M10 142.308h300M10 133.077h300M10 123.846h300M10 114.615h300M10 105.385h300M10 96.154h300M10 86.923h300M10 77.692h300M10 68.462h300M10 59.231h300M10 50h300"/><path fill="none" stroke="#000" stroke-dasharray="1144" marker-mid="url(#SvgjsMarker1003)" style="animation:episode-draw ease-in 32s -16s infinite" d="M10 96.154l10.345-27.692 10.345 64.615h10.344l10.345-9.23 10.345-55.385 10.345 83.076 10.345-64.615 10.345 36.923 10.344 36.923 10.345-36.923L123.793 170l10.345-9.23 10.345-9.232 10.345-46.153 10.344 46.153L175.517 50l10.345 101.538h10.345 10.345l10.345-9.23 10.344 18.461h10.345l10.345-73.846L258.276 170l10.345-9.23 10.345-27.693h10.344l10.345-9.23L310 160.768"/><text font-family="-apple-system,BlinkMacSystemFont,Segoe UI,Oxygen,Ubuntu,Cantarell,Fira Sans,Droid Sans,Helvetica Neue,sans-serif" font-size="60" fill="#df6300" stroke-width="5" stroke="#fff" paint-order="stroke" x="10" y="94.131">125</text><text font-family="-apple-system,BlinkMacSystemFont,Segoe UI,Oxygen,Ubuntu,Cantarell,Fira Sans,Droid Sans,Helvetica Neue,sans-serif" font-size="20" fill="#df6300" stroke-width="5" stroke="#fff" paint-order="stroke" stroke-linejoin="round" x="15" y="116.377">↓ 7%</text></g><g style="animation:fade ease-in 32s -8s infinite" font-family="-apple-system,BlinkMacSystemFont,Segoe UI,Oxygen,Ubuntu,Cantarell,Fira Sans,Droid Sans,Helvetica Neue,sans-serif"><text font-size="20" x="10" y="31.377">Gêneros das últimas 2 semanas</text><text font-size="15" x="10" y="66.033" style="animation:fade2 ease-in 32s -9s infinite"><tspan fill="#df6300">1 </tspan><tspan>Comédia</tspan></text><text font-size="8" x="22" y="78.551" style="animation:fade2 ease-in 32s -8.5s infinite">40 episódios</text><text font-size="15" x="165" y="66.033" style="animation:fade2 ease-in 32s -8.75s infinite"><tspan fill="#df6300">2 </tspan><tspan>Romance</tspan></text><text font-size="8" x="177" y="78.551" style="animation:fade2 ease-in 32s -8.25s infinite">24 episódios</text><text font-size="15" x="10" y="106.033" style="animation:fade2 ease-in 32s -8.5s infinite"><tspan fill="#df6300">3 </tspan><tspan>Drama</tspan></text><text font-size="8" x="22" y="118.551" style="animation:fade2 ease-in 32s -8s infinite">16 episódios</text><text font-size="15" x="165" y="106.033" style="animation:fade2 ease-in 32s -8.25s infinite"><tspan fill="#df6300">3 </tspan><tspan>Sci-Fi</tspan></text><text font-size="8" x="177" y="118.551" style="animation:fade2 ease-in 32s -7.75s infinite">16 episódios</text><text font-size="15" x="10" y="146.033" style="animation:fade2 ease-in 32s -8s infinite"><tspan fill="#df6300">5 </tspan><tspan>Cotidiano</tspan></text><text font-size="8" x="22" y="158.551" style="animation:fade2 ease-in 32s -7.5s infinite">13 episódios</text><text font-size="15" x="165" y="146.033" style="animation:fade2 ease-in 32s -7.75s infinite"><tspan fill="#df6300">6 </tspan><tspan>Ação</tspan></text><text font-size="8" x="177" y="158.551" style="animation:fade2 ease-in 32s -7.25s infinite">9 episódios</text></g><g style="animation:fade ease-in 32s 0s infinite"><path stroke="#333" d="M110 0v180"/><path stroke="#df6300" d="M210 0v180"/><text font-family="-apple-system,BlinkMacSystemFont,Segoe UI,Oxygen,Ubuntu,Cantarell,Fira Sans,Droid Sans,Helvetica Neue,sans-serif" font-size="7" fill="#333" x="5" y="174.482">PENÚLTIMA SEMANA</text><text font-family="-apple-system,BlinkMacSystemFont,Segoe UI,Oxygen,Ubuntu,Cantarell,Fira Sans,Droid Sans,Helvetica Neue,sans-serif" font-size="7" fill="#333" x="115" y="174.482">ÚLTIMA SEMANA</text><text font-family="-apple-system,BlinkMacSystemFont,Segoe UI,Oxygen,Ubuntu,Cantarell,Fira Sans,Droid Sans,Helvetica Neue,sans-serif" font-size="7" fill="#333" x="215" y="174.482">PRÓXIMA SEMANA</text><path fill="#fff" stroke="#000" d="M-65 50h325v8H-65z"/><text font-family="-apple-system,BlinkMacSystemFont,Segoe UI,Oxygen,Ubuntu,Cantarell,Fira Sans,Droid Sans,Helvetica Neue,sans-serif" font-size="6" x="5" y="56.413">Inferno Cop</text><path fill="#fff" stroke="#000" d="M260 50h325v8H260z"/><text font-family="-apple-system,BlinkMacSystemFont,Segoe UI,Oxygen,Ubuntu,Cantarell,Fira Sans,Droid Sans,Helvetica Neue,sans-serif" font-size="6" x="263.333" y="56.413">Morita-san wa Mukuchi. 2</text><path fill="#fff" stroke="#000" d="M-315 60H10v8h-325zM10 60h25v8H10zM35 60h300v8H35z"/><text font-family="-apple-system,BlinkMacSystemFont,Segoe UI,Oxygen,Ubuntu,Cantarell,Fira Sans,Droid Sans,Helvetica Neue,sans-serif" font-size="6" x="38.333" y="66.413">Okusama ga Seitokaichou!</text><path fill="#fff" stroke="#000" d="M-15 70h25v8h-25zM10 70h300v8H10z"/><text font-family="-apple-system,BlinkMacSystemFont,Segoe UI,Oxygen,Ubuntu,Cantarell,Fira Sans,Droid Sans,Helvetica Neue,sans-serif" font-size="6" x="13.333" y="76.413">Himote House</text><path fill="#fff" stroke="#000" d="M60 70h300v8H60z"/><text font-family="-apple-system,BlinkMacSystemFont,Segoe UI,Oxygen,Ubuntu,Cantarell,Fira Sans,Droid Sans,Helvetica Neue,sans-serif" font-size="6" x="63.333" y="76.413">Kobato</text><path fill="#fff" stroke="#000" d="M-90 80h300v8H-90z"/><text font-family="-apple-system,BlinkMacSystemFont,Segoe UI,Oxygen,Ubuntu,Cantarell,Fira Sans,Droid Sans,Helvetica Neue,sans-serif" font-size="6" x="5" y="86.413">Sora to Umi no Aida</text><path fill="#fff" stroke="#000" d="M210 80h300v8H210z"/><text font-family="-apple-system,BlinkMacSystemFont,Segoe UI,Oxygen,Ubuntu,Cantarell,Fira Sans,Droid Sans,Helvetica Neue,sans-serif" font-size="6" x="213.333" y="86.413">The iDOLM@STER Cinderella Girls 2nd Season</text><path fill="#fff" stroke="#000" d="M-15 90h325v8H-15z"/><text font-family="-apple-system,BlinkMacSystemFont,Segoe UI,Oxygen,Ubuntu,Cantarell,Fira Sans,Droid Sans,Helvetica Neue,sans-serif" font-size="6" x="5" y="96.413">Plastic Memories</text><path fill="#fff" stroke="#000" d="M310 90h300v8H310z"/><text font-family="-apple-system,BlinkMacSystemFont,Segoe UI,Oxygen,Ubuntu,Cantarell,Fira Sans,Droid Sans,Helvetica Neue,sans-serif" font-size="6" x="313.333" y="96.413">Gekkan Shoujo Nozaki-kun</text><path fill="#fff" stroke="#000" d="M85 100h50v8H85z"/><text font-family="-apple-system,BlinkMacSystemFont,Segoe UI,Oxygen,Ubuntu,Cantarell,Fira Sans,Droid Sans,Helvetica Neue,sans-serif" font-size="6" x="138.333" y="106.413">Kuma Miko Specials</text><text font-family="-apple-system,BlinkMacSystemFont,Segoe UI,Oxygen,Ubuntu,Cantarell,Fira Sans,Droid Sans,Helvetica Neue,sans-serif" font-size="20" x="10" y="31.377">Animes planejados</text></g><text font-family="-apple-system,BlinkMacSystemFont,Segoe UI,Oxygen,Ubuntu,Cantarell,Fira Sans,Droid Sans,Helvetica Neue,sans-serif" font-size="5" fill="#333" x="310" y="12.344" text-anchor="end" opacity=".5">Atualizado em 06/02/2022</text></svg>