<svg xmlns="http://www.w3.org/2000/svg" viewBox="0 0 320 180"><path fill="#151f2e" d="M0 0h320v180H0z"/><style>@keyframes fade{0%,73%,to{opacity:0}75%,98%{opacity:1}}@keyframes fade2{0%,75%,to{opacity:0}77%,98%{opacity:1}}@keyframes score-draw{73%{stroke-dashoffset:302}72%,80%,to{stroke-dashoffset:0}}@keyframes episode-draw{73%{stroke-dashoffset:1005}72%,80%,to{stroke-dashoffset:0}}</style><g style="animation:fade ease-in 32s -24s infinite"><text font-family="-apple-system,BlinkMacSystemFont,Segoe UI,Oxygen,Ubuntu,Cantarell,Fira Sans,Droid Sans,Helvetica Neue,sans-serif" font-size="20" fill="#9fadbd" x="10" y="31.377">Mean score last week</text><path fill="none" stroke="#485464" stroke-dasharray="1" d="M10 170h300M10 158h300M10 146h300M10 134h300M10 122h300M10 110h300M10 98h300M10 86h300M10 74h300M10 62h300M10 50h300"/><path stroke="#0dadff" d="M10 83.6V57.2M33.077 81.2v-18M56.154 80v-4.8M79.231 80V66.8M102.308 80v-4.8M125.385 80V63.2M148.462 80V56M171.538 81.2V68M194.615 80V63.2M217.692 80v-4.8M240.769 80v-3.6M263.846 77.6v-6M286.923 84.8V58.4M310 77.6V64.4"/><path fill="none" stroke="#9fadbd" stroke-dasharray="302" marker-mid="url(#SvgjsMarker1000)" style="animation:score-draw ease-in 32s -24s infinite" d="M10 75.2L33.077 74l23.077 3.6 23.077-1.2 23.077 2.4 23.077-4.8h23.077l23.076 1.2 23.077-1.2 23.077 3.6h23.077l23.077-1.2 23.077-1.2L310 72.8"/><text font-family="-apple-system,BlinkMacSystemFont,Segoe UI,Oxygen,Ubuntu,Cantarell,Fira Sans,Droid Sans,Helvetica Neue,sans-serif" font-size="60" fill="#0dadff" stroke-width="5" stroke="#151f2e" paint-order="stroke" x="10" y="94.131">7.9</text></g><defs><marker markerWidth="3" markerHeight="3" refX="1.5" refY="1.5" viewBox="0 0 3 3" orient="auto" id="SvgjsMarker1000"><circle r="1.5" cx="1.5" cy="1.5" fill="#9fadbd"/></marker><marker markerWidth="3" markerHeight="3" refX="1.5" refY="1.5" viewBox="0 0 3 3" orient="auto" id="SvgjsMarker1001"><circle r="1.5" cx="1.5" cy="1.5" fill="#9fadbd"/></marker></defs><g style="animation:fade ease-in 32s -16s infinite"><text font-family="-apple-system,BlinkMacSystemFont,Segoe UI,Oxygen,Ubuntu,Cantarell,Fira Sans,Droid Sans,Helvetica Neue,sans-serif" font-size="20" fill="#9fadbd" x="10" y="31.377">Watched episodes last month</text><path fill="none" stroke="#485464" stroke-dasharray="1" d="M10 170h300M10 152.857h300M10 135.714h300M10 118.571h300M10 101.429h300M10 84.286h300M10 67.143h300M10 50h300"/><path fill="none" stroke="#9fadbd" stroke-dasharray="1005" marker-mid="url(#SvgjsMarker1001)" style="animation:episode-draw ease-in 32s -16s infinite" d="M10 67.143L20.345 50l10.345 51.429 10.344-17.143L51.38 170l10.345-17.143H72.07h10.345l10.345-17.143 10.344 17.143h10.345l10.345-68.571L134.138 170l10.345-51.429h10.345 10.344l10.345-17.142 10.345 17.142 10.345 34.286 10.345-68.571 10.345 51.428 10.344 17.143 10.345-17.143 10.345-34.285h10.345l10.345 34.285h10.345l10.344 17.143 10.345-85.714L310 135.714"/><text font-family="-apple-system,BlinkMacSystemFont,Segoe UI,Oxygen,Ubuntu,Cantarell,Fira Sans,Droid Sans,Helvetica Neue,sans-serif" font-size="60" fill="#0dadff" stroke-width="5" stroke="#151f2e" paint-order="stroke" x="10" y="94.131">82</text><text font-family="-apple-system,BlinkMacSystemFont,Segoe UI,Oxygen,Ubuntu,Cantarell,Fira Sans,Droid Sans,Helvetica Neue,sans-serif" font-size="20" fill="#0dadff" stroke-width="5" stroke="#151f2e" paint-order="stroke" stroke-linejoin="round" x="15" y="116.377">↑ 5%</text></g><g style="animation:fade ease-in 32s -8s infinite" font-family="-apple-system,BlinkMacSystemFont,Segoe UI,Oxygen,Ubuntu,Cantarell,Fira Sans,Droid Sans,Helvetica Neue,sans-serif" fill="#9fadbd"><text font-size="20" x="10" y="31.377">Top genres last two weeks</text><text font-size="15" x="10" y="66.033" style="animation:fade2 ease-in 32s -9s infinite"><tspan fill="#0dadff">1 </tspan><tspan>Comedy</tspan></text><text font-size="8" x="22" y="78.551" style="animation:fade2 ease-in 32s -8.5s infinite">36 episodes</text><text font-size="15" x="165" y="66.033" style="animation:fade2 ease-in 32s -8.75s infinite"><tspan fill="#0dadff">2 </tspan><tspan>Slice of Life</tspan></text><text font-size="8" x="177" y="78.551" style="animation:fade2 ease-in 32s -8.25s infinite">34 episodes</text><text font-size="15" x="10" y="106.033" style="animation:fade2 ease-in 32s -8.5s infinite"><tspan fill="#0dadff">3 </tspan><tspan>Supernatural</tspan></text><text font-size="8" x="22" y="118.551" style="animation:fade2 ease-in 32s -8s infinite">11 episodes</text><text font-size="15" x="165" y="106.033" style="animation:fade2 ease-in 32s -8.25s infinite"><tspan fill="#0dadff">4 </tspan><tspan>Fantasy</tspan></text><text font-size="8" x="177" y="118.551" style="animation:fade2 ease-in 32s -7.75s infinite">5 episodes</text><text font-size="15" x="10" y="146.033" style="animation:fade2 ease-in 32s -8s infinite"><tspan fill="#0dadff">4 </tspan><tspan>Ecchi</tspan></text><text font-size="8" x="22" y="158.551" style="animation:fade2 ease-in 32s -7.5s infinite">5 episodes</text></g><g style="animation:fade ease-in 32s 0s infinite"><path stroke="#485464" d="M110 0v180"/><path stroke="#0dadff" d="M210 0v180"/><text font-family="-apple-system,BlinkMacSystemFont,Segoe UI,Oxygen,Ubuntu,Cantarell,Fira Sans,Droid Sans,Helvetica Neue,sans-serif" font-size="7" fill="#485464" x="5" y="174.482">2ND LAST WEEK</text><text font-family="-apple-system,BlinkMacSystemFont,Segoe UI,Oxygen,Ubuntu,Cantarell,Fira Sans,Droid Sans,Helvetica Neue,sans-serif" font-size="7" fill="#485464" x="115" y="174.482">LAST WEEK</text><text font-family="-apple-system,BlinkMacSystemFont,Segoe UI,Oxygen,Ubuntu,Cantarell,Fira Sans,Droid Sans,Helvetica Neue,sans-serif" font-size="7" fill="#485464" x="215" y="174.482">NEXT WEEK</text><path fill="#151f2e" stroke="#9fadbd" d="M-134.444 50h266.667v18h-266.667z"/><text font-family="-apple-system,BlinkMacSystemFont,Segoe UI,Oxygen,Ubuntu,Cantarell,Fira Sans,Droid Sans,Helvetica Neue,sans-serif" font-size="13.5" fill="#9fadbd" x="5" y="64.429">Okoshiyasu, Chitose-chan</text><path fill="#151f2e" stroke="#9fadbd" d="M132.222 50h44.444v18h-44.444z"/><text font-family="-apple-system,BlinkMacSystemFont,Segoe UI,Oxygen,Ubuntu,Cantarell,Fira Sans,Droid Sans,Helvetica Neue,sans-serif" font-size="13.5" fill="#9fadbd" x="139.722" y="64.429">Go! Go! 575</text><path fill="#151f2e" stroke="#9fadbd" d="M176.667 50h144.444v18H176.667z"/><text font-family="-apple-system,BlinkMacSystemFont,Segoe UI,Oxygen,Ubuntu,Cantarell,Fira Sans,Droid Sans,Helvetica Neue,sans-serif" font-size="13.5" fill="#9fadbd" x="184.167" y="64.429">Wooser no Sono Higurashi Mugen-hen</text><path fill="#151f2e" stroke="#9fadbd" d="M-112.222 72.5H21.111v18h-133.333zM21.111 72.5h266.667v18H21.111z"/><text font-family="-apple-system,BlinkMacSystemFont,Segoe UI,Oxygen,Ubuntu,Cantarell,Fira Sans,Droid Sans,Helvetica Neue,sans-serif" font-size="13.5" fill="#9fadbd" x="28.611" y="86.929">TV Yarou Nanaana Wakuwaku Doukutsu Land</text><path fill="#151f2e" stroke="#9fadbd" d="M287.778 72.5h11.111v18h-11.111zM298.889 72.5h144.444v18H298.889z"/><text font-family="-apple-system,BlinkMacSystemFont,Segoe UI,Oxygen,Ubuntu,Cantarell,Fira Sans,Droid Sans,Helvetica Neue,sans-serif" font-size="13.5" fill="#9fadbd" x="306.389" y="86.929">Mahou Shoujo Taisen</text><path fill="#151f2e" stroke="#9fadbd" d="M-167.778 95H98.889v18h-266.667z"/><text font-family="-apple-system,BlinkMacSystemFont,Segoe UI,Oxygen,Ubuntu,Cantarell,Fira Sans,Droid Sans,Helvetica Neue,sans-serif" font-size="13.5" fill="#9fadbd" x="5" y="109.429">Shirobako</text><path fill="#151f2e" stroke="#9fadbd" d="M-34.444 95H98.889v18H-34.444z"/><text font-family="-apple-system,BlinkMacSystemFont,Segoe UI,Oxygen,Ubuntu,Cantarell,Fira Sans,Droid Sans,Helvetica Neue,sans-serif" font-size="13.5" fill="#9fadbd" x="5" y="109.429">Blend S</text><path fill="#151f2e" stroke="#9fadbd" d="M98.889 95h133.333v18H98.889zM232.222 95h288.889v18H232.222z"/><text font-family="-apple-system,BlinkMacSystemFont,Segoe UI,Oxygen,Ubuntu,Cantarell,Fira Sans,Droid Sans,Helvetica Neue,sans-serif" font-size="13.5" fill="#9fadbd" x="239.722" y="109.429">Shirokuma Cafe</text><path fill="#151f2e" stroke="#9fadbd" d="M-1.111 117.5h133.333v18H-1.111z"/><text font-family="-apple-system,BlinkMacSystemFont,Segoe UI,Oxygen,Ubuntu,Cantarell,Fira Sans,Droid Sans,Helvetica Neue,sans-serif" font-size="13.5" fill="#9fadbd" x="6.389" y="131.929">Demi-chan wa Kataritai</text><path fill="#151f2e" stroke="#9fadbd" d="M132.222 117.5h266.667v18H132.222z"/><text font-family="-apple-system,BlinkMacSystemFont,Segoe UI,Oxygen,Ubuntu,Cantarell,Fira Sans,Droid Sans,Helvetica Neue,sans-serif" font-size="13.5" fill="#9fadbd" x="139.722" y="131.929">Chibi Maruko-chan</text><path fill="#151f2e" stroke="#9fadbd" d="M165.556 117.5h133.333v18H165.556z"/><text font-family="-apple-system,BlinkMacSystemFont,Segoe UI,Oxygen,Ubuntu,Cantarell,Fira Sans,Droid Sans,Helvetica Neue,sans-serif" font-size="13.5" fill="#9fadbd" x="173.056" y="131.929">Majimoji Rurumo</text><path fill="#151f2e" stroke="#9fadbd" d="M298.889 117.5h133.333v18H298.889zM-101.111 140h266.667v18h-266.667z"/><text font-family="-apple-system,BlinkMacSystemFont,Segoe UI,Oxygen,Ubuntu,Cantarell,Fira Sans,Droid Sans,Helvetica Neue,sans-serif" font-size="13.5" fill="#9fadbd" x="5" y="154.429">Lovely★Complex</text><path fill="#151f2e" stroke="#9fadbd" d="M32.222 140h22.222v18H32.222zM54.444 140h133.333v18H54.444z"/><text font-family="-apple-system,BlinkMacSystemFont,Segoe UI,Oxygen,Ubuntu,Cantarell,Fira Sans,Droid Sans,Helvetica Neue,sans-serif" font-size="13.5" fill="#9fadbd" x="61.944" y="154.429">Hanayamata</text><path fill="#151f2e" stroke="#9fadbd" d="M187.778 140h11.111v18h-11.111zM198.889 140h133.333v18H198.889z"/><text font-family="-apple-system,BlinkMacSystemFont,Segoe UI,Oxygen,Ubuntu,Cantarell,Fira Sans,Droid Sans,Helvetica Neue,sans-serif" font-size="13.5" fill="#9fadbd" x="206.389" y="154.429">Dr. Stone</text><text font-family="-apple-system,BlinkMacSystemFont,Segoe UI,Oxygen,Ubuntu,Cantarell,Fira Sans,Droid Sans,Helvetica Neue,sans-serif" font-size="20" fill="#9fadbd" x="10" y="31.377">Planned anime</text></g></svg>