<svg xmlns="http://www.w3.org/2000/svg" viewBox="0 0 320 180"><path fill="#fff" d="M0 0h320v180H0z"/><style>@keyframes fade{0%,73%,to{opacity:0}75%,98%{opacity:1}}@keyframes fade2{0%,75%,to{opacity:0}77%,98%{opacity:1}}@keyframes score-draw{73%{stroke-dashoffset:309}72%,80%,to{stroke-dashoffset:0}}@keyframes episode-draw{73%{stroke-dashoffset:1025}72%,80%,to{stroke-dashoffset:0}}</style><g style="animation:fade ease-in 32s -24s infinite"><text font-family="-apple-system,BlinkMacSystemFont,Segoe UI,Oxygen,Ubuntu,Cantarell,Fira Sans,Droid Sans,Helvetica Neue,sans-serif" font-size="20" x="10" y="31.377">Nota média na última semana</text><path fill="none" stroke="#333" stroke-dasharray="1" d="M10 170h300M10 158h300M10 146h300M10 134h300M10 122h300M10 110h300M10 98h300M10 86h300M10 74h300M10 62h300M10 50h300"/><path stroke="#df6300" d="M10 76.4v-3.6M56.154 82.4V60.8M79.231 75.2v-24M102.308 76.4V68M125.385 77.6V66.8M148.462 77.6V66.8M171.538 92V65.6M194.615 75.2V64.4M217.692 82.4V65.6M263.846 108.8v-42"/><path fill="none" stroke="#000" stroke-dasharray="309" marker-mid="url(#SvgjsMarker1002)" style="animation:score-draw ease-in 32s -24s infinite" d="M10 74l23.077 3.6L56.154 74 79.23 63.2l23.077 8.4h23.077 23.077l23.076 7.2 23.077-7.2 23.077 2.4 23.077-3.6 23.077 8.4 23.077-1.2H310"/><text font-family="-apple-system,BlinkMacSystemFont,Segoe UI,Oxygen,Ubuntu,Cantarell,Fira Sans,Droid Sans,Helvetica Neue,sans-serif" font-size="60" fill="#df6300" stroke-width="5" stroke="#fff" paint-order="stroke" x="10" y="94.131">7.8</text><text font-family="-apple-system,BlinkMacSystemFont,Segoe UI,Oxygen,Ubuntu,Cantarell,Fira Sans,Droid Sans,Helvetica Neue,sans-serif" font-size="20" fill="#df6300" stroke-width="5" stroke="#fff" paint-order="stroke" stroke-linejoin="round" x="15" y="116.377">↓ 4%</text></g><defs><marker markerWidth="3" markerHeight="3" refX="1.5" refY="1.5" viewBox="0 0 3 3" orient="auto" id="SvgjsMarker1002"><circle r="1.5" cx="1.5" cy="1.5"/></marker><marker markerWidth="3" markerHeight="3" refX="1.5" refY="1.5" viewBox="0 0 3 3" orient="auto" id="SvgjsMarker1003"><circle r="1.5" cx="1.5" cy="1.5"/></marker></defs><g style="animation:fade ease-in 32s -16s infinite"><text font-family="-apple-system,BlinkMacSystemFont,Segoe UI,Oxygen,Ubuntu,Cantarell,Fira Sans,Droid Sans,Helvetica Neue,sans-serif" font-size="20" x="10" y="31.377">Episódios vistos no último mês</text><path fill="none" stroke="#333" stroke-dasharray="1" d="M10 170h300M10 162h300M10 154h300M10 146h300M10 138h300M10 130h300M10 122h300M10 114h300M10 106h300M10 98h300M10 90h300M10 82h300M10 74h300M10 66h300M10 58h300M10 50h300"/><path fill="none" stroke="#000" stroke-dasharray="1025" marker-mid="url(#SvgjsMarker1003)" style="animation:episode-draw ease-in 32s -16s infinite" d="M10 162l10.345-24L30.69 98l10.344 32 10.345 16 10.345-24H72.07l10.345 16 10.345-16 10.344 8 10.345-48 10.345 88 10.345-120 10.345 112h10.345l10.344-24 10.345 16 10.345 8 10.345-56 10.345 48h10.345 10.344 10.345l10.345-16 10.345 8 10.345-16 10.345 32 10.344-72 10.345 72H310"/><text font-family="-apple-system,BlinkMacSystemFont,Segoe UI,Oxygen,Ubuntu,Cantarell,Fira Sans,Droid Sans,Helvetica Neue,sans-serif" font-size="60" fill="#df6300" stroke-width="5" stroke="#fff" paint-order="stroke" x="10" y="94.131">125</text><text font-family="-apple-system,BlinkMacSystemFont,Segoe UI,Oxygen,Ubuntu,Cantarell,Fira Sans,Droid Sans,Helvetica Neue,sans-serif" font-size="20" fill="#df6300" stroke-width="5" stroke="#fff" paint-order="stroke" stroke-linejoin="round" x="15" y="116.377">↑ 28%</text></g><g style="animation:fade ease-in 32s -8s infinite" font-family="-apple-system,BlinkMacSystemFont,Segoe UI,Oxygen,Ubuntu,Cantarell,Fira Sans,Droid Sans,Helvetica Neue,sans-serif"><text font-size="20" x="10" y="31.377">Gêneros das últimas 2 semanas</text><text font-size="15" x="10" y="66.033" style="animation:fade2 ease-in 32s -9s infinite"><tspan fill="#df6300">1 </tspan><tspan>Comédia</tspan></text><text font-size="8" x="22" y="78.551" style="animation:fade2 ease-in 32s -8.5s infinite">40 episódios</text><text font-size="15" x="165" y="66.033" style="animation:fade2 ease-in 32s -8.75s infinite"><tspan fill="#df6300">2 </tspan><tspan>Cotidiano</tspan></text><text font-size="8" x="177" y="78.551" style="animation:fade2 ease-in 32s -8.25s infinite">29 episódios</text><text font-size="15" x="10" y="106.033" style="animation:fade2 ease-in 32s -8.5s infinite"><tspan fill="#df6300">3 </tspan><tspan>Romance</tspan></text><text font-size="8" x="22" y="118.551" style="animation:fade2 ease-in 32s -8s infinite">13 episódios</text><text font-size="15" x="165" y="106.033" style="animation:fade2 ease-in 32s -8.25s infinite"><tspan fill="#df6300">4 </tspan><tspan>Drama</tspan></text><text font-size="8" x="177" y="118.551" style="animation:fade2 ease-in 32s -7.75s infinite">6 episódios</text><text font-size="15" x="10" y="146.033" style="animation:fade2 ease-in 32s -8s infinite"><tspan fill="#df6300">5 </tspan><tspan>Fantasia</tspan></text><text font-size="8" x="22" y="158.551" style="animation:fade2 ease-in 32s -7.5s infinite">4 episódios</text><text font-size="15" x="165" y="146.033" style="animation:fade2 ease-in 32s -7.75s infinite"><tspan fill="#df6300">6 </tspan><tspan>Psicológico</tspan></text><text font-size="8" x="177" y="158.551" style="animation:fade2 ease-in 32s -7.25s infinite">3 episódios</text></g><g style="animation:fade ease-in 32s 0s infinite"><path stroke="#333" d="M110 0v180"/><path stroke="#df6300" d="M210 0v180"/><text font-family="-apple-system,BlinkMacSystemFont,Segoe UI,Oxygen,Ubuntu,Cantarell,Fira Sans,Droid Sans,Helvetica Neue,sans-serif" font-size="7" fill="#333" x="5" y="174.482">PENÚLTIMA SEMANA</text><text font-family="-apple-system,BlinkMacSystemFont,Segoe UI,Oxygen,Ubuntu,Cantarell,Fira Sans,Droid Sans,Helvetica Neue,sans-serif" font-size="7" fill="#333" x="115" y="174.482">ÚLTIMA SEMANA</text><text font-family="-apple-system,BlinkMacSystemFont,Segoe UI,Oxygen,Ubuntu,Cantarell,Fira Sans,Droid Sans,Helvetica Neue,sans-serif" font-size="7" fill="#333" x="215" y="174.482">PRÓXIMA SEMANA</text><path fill="#fff" stroke="#000" d="M273.636 63.846H164.545v5.538h109.091z"/><path fill="#fff" stroke="#000" d="M164.545 63.846H46.363v5.538h118.182zM246.364 84.615H137.273v5.538h109.091zM137.273 84.615H82.728v5.538h54.545zM310 105.385H200.909v5.538H310zM200.909 105.385H91.818v5.538h109.091zM282.727 126.154H164.545v5.538h118.182z"/><text font-family="-apple-system,BlinkMacSystemFont,Segoe UI,Oxygen,Ubuntu,Cantarell,Fira Sans,Droid Sans,Helvetica Neue,sans-serif" font-size="4.154" x="166.853" y="130.594">Chihayafuru 2</text><path fill="#fff" stroke="#000" d="M219.091 126.154h-200v5.538h200z"/><path fill="#fff" stroke="#000" d="M119.091 126.154H28.182v5.538h90.909z"/><path fill="#fff" stroke="#000" d="M64.545 126.154H10v5.538h54.545zM137.273 140h-9.091v5.538h9.091z"/><text font-family="-apple-system,BlinkMacSystemFont,Segoe UI,Oxygen,Ubuntu,Cantarell,Fira Sans,Droid Sans,Helvetica Neue,sans-serif" font-size="4.154" x="130.49" y="144.44">Koe no Katachi</text><text font-family="-apple-system,BlinkMacSystemFont,Segoe UI,Oxygen,Ubuntu,Cantarell,Fira Sans,Droid Sans,Helvetica Neue,sans-serif" font-size="20" x="10" y="31.377">Animes planejados</text></g><text font-family="-apple-system,BlinkMacSystemFont,Segoe UI,Oxygen,Ubuntu,Cantarell,Fira Sans,Droid Sans,Helvetica Neue,sans-serif" font-size="5" fill="#333" x="310" y="12.344" text-anchor="end" opacity=".5">Atualizado em 26/04/2022</text></svg>