<svg xmlns="http://www.w3.org/2000/svg" viewBox="0 0 320 180"><path fill="#151f2e" d="M0 0h320v180H0z"/><style>@keyframes fade{0%,73%,to{opacity:0}75%,98%{opacity:1}}@keyframes fade2{0%,75%,to{opacity:0}77%,98%{opacity:1}}@keyframes score-draw{73%{stroke-dashoffset:311}72%,80%,to{stroke-dashoffset:0}}@keyframes episode-draw{73%{stroke-dashoffset:1089}72%,80%,to{stroke-dashoffset:0}}</style><g style="animation:fade ease-in 32s -24s infinite"><text font-family="-apple-system,BlinkMacSystemFont,Segoe UI,Oxygen,Ubuntu,Cantarell,Fira Sans,Droid Sans,Helvetica Neue,sans-serif" font-size="20" fill="#9fadbd" x="10" y="31.377">Mean score last week</text><path fill="none" stroke="#485464" stroke-dasharray="1" d="M10 170h300M10 158h300M10 146h300M10 134h300M10 122h300M10 110h300M10 98h300M10 86h300M10 74h300M10 62h300M10 50h300"/><path stroke="#0dadff" d="M10 78.8V65.6M33.077 89.6v-24M56.154 104V77.6M79.231 83.6V66.8M102.308 83.6v-30M125.385 83.6v-7.2M148.462 78.8V63.2M171.538 80V63.2M194.615 88.4V60.8M217.692 78.8v-9.6M240.769 77.6v-2.4M263.846 83.6v-18M286.923 82.4V65.6M310 83.6V68"/><path fill="none" stroke="#9fadbd" stroke-dasharray="311" marker-mid="url(#SvgjsMarker1000)" style="animation:score-draw ease-in 32s -24s infinite" d="M10 71.6l23.077 4.8 23.077 12L79.23 75.2l23.077-6 23.077 9.6 23.077-6 23.076 1.2 23.077-2.4 23.077 3.6 23.077 1.2h23.077l23.077-1.2H310"/><text font-family="-apple-system,BlinkMacSystemFont,Segoe UI,Oxygen,Ubuntu,Cantarell,Fira Sans,Droid Sans,Helvetica Neue,sans-serif" font-size="60" fill="#0dadff" stroke-width="5" stroke="#151f2e" paint-order="stroke" x="10" y="94.131">7.9</text><text font-family="-apple-system,BlinkMacSystemFont,Segoe UI,Oxygen,Ubuntu,Cantarell,Fira Sans,Droid Sans,Helvetica Neue,sans-serif" font-size="20" fill="#0dadff" stroke-width="5" stroke="#151f2e" paint-order="stroke" stroke-linejoin="round" x="15" y="116.377">↑ 1%</text></g><defs><marker markerWidth="3" markerHeight="3" refX="1.5" refY="1.5" viewBox="0 0 3 3" orient="auto" id="SvgjsMarker1000"><circle r="1.5" cx="1.5" cy="1.5" fill="#9fadbd"/></marker><marker markerWidth="3" markerHeight="3" refX="1.5" refY="1.5" viewBox="0 0 3 3" orient="auto" id="SvgjsMarker1001"><circle r="1.5" cx="1.5" cy="1.5" fill="#9fadbd"/></marker></defs><g style="animation:fade ease-in 32s -16s infinite"><text font-family="-apple-system,BlinkMacSystemFont,Segoe UI,Oxygen,Ubuntu,Cantarell,Fira Sans,Droid Sans,Helvetica Neue,sans-serif" font-size="20" fill="#9fadbd" x="10" y="31.377">Watched episodes last month</text><path fill="none" stroke="#485464" stroke-dasharray="1" d="M10 170h300M10 146h300M10 122h300M10 98h300M10 74h300M10 50h300"/><path fill="none" stroke="#9fadbd" stroke-dasharray="1089" marker-mid="url(#SvgjsMarker1001)" style="animation:episode-draw ease-in 32s -16s infinite" d="M10 146l10.345-72 10.345 72 10.344-72 10.345 72 10.345-48L72.07 74l10.345-24 10.345 24h10.344l10.345 48 10.345-24 10.345 72 10.345-72h10.345l10.344 24 10.345-48h10.345l10.345 24h10.345 10.345l10.344-24 10.345 24 10.345-48 10.345 48h10.345l10.345 24 10.344-72 10.345 24H310"/><text font-family="-apple-system,BlinkMacSystemFont,Segoe UI,Oxygen,Ubuntu,Cantarell,Fira Sans,Droid Sans,Helvetica Neue,sans-serif" font-size="60" fill="#0dadff" stroke-width="5" stroke="#151f2e" paint-order="stroke" x="10" y="94.131">94</text><text font-family="-apple-system,BlinkMacSystemFont,Segoe UI,Oxygen,Ubuntu,Cantarell,Fira Sans,Droid Sans,Helvetica Neue,sans-serif" font-size="20" fill="#0dadff" stroke-width="5" stroke="#151f2e" paint-order="stroke" stroke-linejoin="round" x="15" y="116.377">↑ 3%</text></g><g style="animation:fade ease-in 32s -8s infinite" font-family="-apple-system,BlinkMacSystemFont,Segoe UI,Oxygen,Ubuntu,Cantarell,Fira Sans,Droid Sans,Helvetica Neue,sans-serif" fill="#9fadbd"><text font-size="20" x="10" y="31.377">Top genres last two weeks</text><text font-size="15" x="10" y="66.033" style="animation:fade2 ease-in 32s -9s infinite"><tspan fill="#0dadff">1 </tspan><tspan>Slice of Life</tspan></text><text font-size="8" x="22" y="78.551" style="animation:fade2 ease-in 32s -8.5s infinite">40 episodes</text><text font-size="15" x="165" y="66.033" style="animation:fade2 ease-in 32s -8.75s infinite"><tspan fill="#0dadff">2 </tspan><tspan>Comedy</tspan></text><text font-size="8" x="177" y="78.551" style="animation:fade2 ease-in 32s -8.25s infinite">33 episodes</text><text font-size="15" x="10" y="106.033" style="animation:fade2 ease-in 32s -8.5s infinite"><tspan fill="#0dadff">3 </tspan><tspan>Drama</tspan></text><text font-size="8" x="22" y="118.551" style="animation:fade2 ease-in 32s -8s infinite">10 episodes</text><text font-size="15" x="165" y="106.033" style="animation:fade2 ease-in 32s -8.25s infinite"><tspan fill="#0dadff">3 </tspan><tspan>Romance</tspan></text><text font-size="8" x="177" y="118.551" style="animation:fade2 ease-in 32s -7.75s infinite">10 episodes</text><text font-size="15" x="10" y="146.033" style="animation:fade2 ease-in 32s -8s infinite"><tspan fill="#0dadff">5 </tspan><tspan>Fantasy</tspan></text><text font-size="8" x="22" y="158.551" style="animation:fade2 ease-in 32s -7.5s infinite">7 episodes</text></g><g style="animation:fade ease-in 32s 0s infinite"><path stroke="#485464" d="M110 0v180"/><path stroke="#0dadff" d="M210 0v180"/><text font-family="-apple-system,BlinkMacSystemFont,Segoe UI,Oxygen,Ubuntu,Cantarell,Fira Sans,Droid Sans,Helvetica Neue,sans-serif" font-size="7" fill="#485464" x="5" y="174.482">2ND LAST WEEK</text><text font-family="-apple-system,BlinkMacSystemFont,Segoe UI,Oxygen,Ubuntu,Cantarell,Fira Sans,Droid Sans,Helvetica Neue,sans-serif" font-size="7" fill="#485464" x="115" y="174.482">LAST WEEK</text><text font-family="-apple-system,BlinkMacSystemFont,Segoe UI,Oxygen,Ubuntu,Cantarell,Fira Sans,Droid Sans,Helvetica Neue,sans-serif" font-size="7" fill="#485464" x="215" y="174.482">NEXT WEEK</text><path fill="#151f2e" stroke="#9fadbd" d="M-30 50h640v14.4H-30z"/><text font-family="-apple-system,BlinkMacSystemFont,Segoe UI,Oxygen,Ubuntu,Cantarell,Fira Sans,Droid Sans,Helvetica Neue,sans-serif" font-size="10.8" fill="#9fadbd" x="5" y="61.544">Neko Neko Nihonshi</text><path fill="#151f2e" stroke="#9fadbd" d="M-150 68H90v14.4h-240z"/><text font-family="-apple-system,BlinkMacSystemFont,Segoe UI,Oxygen,Ubuntu,Cantarell,Fira Sans,Droid Sans,Helvetica Neue,sans-serif" font-size="10.8" fill="#9fadbd" x="5" y="79.544">Okusama ga Seitokaichou!+!</text><path fill="#151f2e" stroke="#9fadbd" d="M90 68h200v14.4H90z"/><text font-family="-apple-system,BlinkMacSystemFont,Segoe UI,Oxygen,Ubuntu,Cantarell,Fira Sans,Droid Sans,Helvetica Neue,sans-serif" font-size="10.8" fill="#9fadbd" x="96" y="79.544">Honobono Log</text><path fill="#151f2e" stroke="#9fadbd" d="M230 68h240v14.4H230z"/><text font-family="-apple-system,BlinkMacSystemFont,Segoe UI,Oxygen,Ubuntu,Cantarell,Fira Sans,Droid Sans,Helvetica Neue,sans-serif" font-size="10.8" fill="#9fadbd" x="236" y="79.544">One Room 2</text><path fill="#151f2e" stroke="#9fadbd" d="M-210 86h2200v14.4H-210z"/><text font-family="-apple-system,BlinkMacSystemFont,Segoe UI,Oxygen,Ubuntu,Cantarell,Fira Sans,Droid Sans,Helvetica Neue,sans-serif" font-size="10.8" fill="#9fadbd" x="5" y="97.544">Chibi Maruko-chan</text><path fill="#151f2e" stroke="#9fadbd" d="M290 86h240v14.4H290z"/><text font-family="-apple-system,BlinkMacSystemFont,Segoe UI,Oxygen,Ubuntu,Cantarell,Fira Sans,Droid Sans,Helvetica Neue,sans-serif" font-size="10.8" fill="#9fadbd" x="296" y="97.544">Kaguya-sama wa Kokurasetai 2</text><path fill="#151f2e" stroke="#9fadbd" d="M-90 104h240v14.4H-90z"/><text font-family="-apple-system,BlinkMacSystemFont,Segoe UI,Oxygen,Ubuntu,Cantarell,Fira Sans,Droid Sans,Helvetica Neue,sans-serif" font-size="10.8" fill="#9fadbd" x="5" y="115.544">Centaur no Nayami</text><path fill="#151f2e" stroke="#9fadbd" d="M150 104h240v14.4H150z"/><text font-family="-apple-system,BlinkMacSystemFont,Segoe UI,Oxygen,Ubuntu,Cantarell,Fira Sans,Droid Sans,Helvetica Neue,sans-serif" font-size="10.8" fill="#9fadbd" x="156" y="115.544">Komi-san wa, Comyushou desu</text><path fill="#151f2e" stroke="#9fadbd" d="M-10 122h220v14.4H-10z"/><text font-family="-apple-system,BlinkMacSystemFont,Segoe UI,Oxygen,Ubuntu,Cantarell,Fira Sans,Droid Sans,Helvetica Neue,sans-serif" font-size="10.8" fill="#9fadbd" x="5" y="133.544">3-gatsu no Lion 2nd Season</text><path fill="#151f2e" stroke="#9fadbd" d="M210 122h260v14.4H210z"/><text font-family="-apple-system,BlinkMacSystemFont,Segoe UI,Oxygen,Ubuntu,Cantarell,Fira Sans,Droid Sans,Helvetica Neue,sans-serif" font-size="10.8" fill="#9fadbd" x="216" y="133.544">Chihayafuru 2</text><path fill="#151f2e" stroke="#9fadbd" d="M130 140h20v14.4h-20z"/><text font-family="-apple-system,BlinkMacSystemFont,Segoe UI,Oxygen,Ubuntu,Cantarell,Fira Sans,Droid Sans,Helvetica Neue,sans-serif" font-size="10.8" fill="#9fadbd" x="156" y="151.544">Seitokai Yakuindomo The Movie 2</text><text font-family="-apple-system,BlinkMacSystemFont,Segoe UI,Oxygen,Ubuntu,Cantarell,Fira Sans,Droid Sans,Helvetica Neue,sans-serif" font-size="20" fill="#9fadbd" x="10" y="31.377">Planned anime</text></g><text font-family="-apple-system,BlinkMacSystemFont,Segoe UI,Oxygen,Ubuntu,Cantarell,Fira Sans,Droid Sans,Helvetica Neue,sans-serif" font-size="5" fill="#485464" x="310" y="12.344" text-anchor="end" opacity=".5">Updated at 23/03/2022</text></svg>