<svg xmlns="http://www.w3.org/2000/svg" viewBox="0 0 320 180"><path fill="#0b1622" d="M0 0h320v180H0z"/><style>@keyframes fade{0%,70%,to{opacity:0}75%,95%{opacity:1}}</style><g style="animation:fade ease-in 32s -24s infinite"><text font-family="-apple-system,BlinkMacSystemFont,Segoe UI,Oxygen,Ubuntu,Cantarell,Fira Sans,Droid Sans,Helvetica Neue,sans-serif" font-size="20" fill="#9fadbd" x="10" y="31.377">Mean score last week</text><path fill="none" stroke="#151f2e" d="M10 170h300M10 158h300M10 146h300M10 134h300M10 122h300M10 110h300M10 98h300M10 86h300M10 74h300M10 62h300M10 50h300"/><path fill="none" stroke="#9fadbd" marker-mid="url(#SvgjsMarker1000)" d="M10 65.6l23.077 12h23.077L79.23 80l23.077-3.6 23.077-2.4 23.077 2.4h23.076l23.077-1.2 23.077 1.2 23.077 1.2h23.077l23.077-1.2H310"/><text font-family="-apple-system,BlinkMacSystemFont,Segoe UI,Oxygen,Ubuntu,Cantarell,Fira Sans,Droid Sans,Helvetica Neue,sans-serif" font-size="60" fill="#0dadff" stroke-width="5" stroke="#0b1622" paint-order="stroke" x="10" y="94.131">7.8</text></g><defs><marker markerWidth="3" markerHeight="3" refX="1.5" refY="1.5" viewBox="0 0 3 3" orient="auto" id="SvgjsMarker1000"><circle r="1.5" cx="1.5" cy="1.5" fill="#9fadbd"/></marker><marker markerWidth="3" markerHeight="3" refX="1.5" refY="1.5" viewBox="0 0 3 3" orient="auto" id="SvgjsMarker1001"><circle r="1.5" cx="1.5" cy="1.5" fill="#9fadbd"/></marker></defs><g style="animation:fade ease-in 32s -16s infinite"><text font-family="-apple-system,BlinkMacSystemFont,Segoe UI,Oxygen,Ubuntu,Cantarell,Fira Sans,Droid Sans,Helvetica Neue,sans-serif" font-size="20" fill="#9fadbd" x="10" y="31.377">Watched episodes last week</text><path fill="none" stroke="#151f2e" d="M10 170h300M10 150h300M10 130h300M10 110h300M10 90h300M10 70h300M10 50h300"/><path fill="none" stroke="#9fadbd" marker-mid="url(#SvgjsMarker1001)" d="M10 170l23.077-80 23.077 80 23.077-20 23.077-80 23.077 60h23.077l23.076-40 23.077 40 23.077-80 23.077 20 23.077 60h23.077L310 170"/><text font-family="-apple-system,BlinkMacSystemFont,Segoe UI,Oxygen,Ubuntu,Cantarell,Fira Sans,Droid Sans,Helvetica Neue,sans-serif" font-size="60" fill="#0dadff" stroke-width="5" stroke="#0b1622" paint-order="stroke" x="10" y="94.131">21</text></g><g style="animation:fade ease-in 32s -8s infinite" font-family="-apple-system,BlinkMacSystemFont,Segoe UI,Oxygen,Ubuntu,Cantarell,Fira Sans,Droid Sans,Helvetica Neue,sans-serif" fill="#9fadbd"><text font-size="20" x="10" y="31.377">Top genres last week</text><text font-size="15" x="10" y="66.033"><tspan fill="#0dadff">1 </tspan><tspan>Slice of Life</tspan></text><text font-size="8" x="22" y="78.551">21 episodes</text><text font-size="15" x="165" y="66.033"><tspan fill="#0dadff">1 </tspan><tspan>Comedy</tspan></text><text font-size="8" x="177" y="78.551">21 episodes</text><text font-size="15" x="10" y="106.033"><tspan fill="#0dadff">3 </tspan><tspan>Music</tspan></text><text font-size="8" x="22" y="118.551">9 episodes</text><text font-size="15" x="165" y="106.033"><tspan fill="#0dadff">4 </tspan><tspan>Adventure</tspan></text><text font-size="8" x="177" y="118.551">4 episodes</text><text font-size="15" x="10" y="146.033"><tspan fill="#0dadff">5 </tspan><tspan>Fantasy</tspan></text><text font-size="8" x="22" y="158.551">1 episode</text><text font-size="15" x="165" y="146.033"><tspan fill="#0dadff">5 </tspan><tspan>Sports</tspan></text><text font-size="8" x="177" y="158.551">1 episode</text></g><g style="animation:fade ease-in 32s 0s infinite"><path stroke="#151f2e" d="M93.333 0v180M226.667 0v180"/><path fill="#151f2e" stroke="#9fadbd" d="M-156.667 46h200v8h-200z"/><text font-family="-apple-system,BlinkMacSystemFont,Segoe UI,Oxygen,Ubuntu,Cantarell,Fira Sans,Droid Sans,Helvetica Neue,sans-serif" font-size="5.6" fill="#9fadbd" x="5" y="51.986">Nyanko Days</text><path fill="#151f2e" stroke="#9fadbd" d="M43.333 46h433.333v8H43.333z"/><text font-family="-apple-system,BlinkMacSystemFont,Segoe UI,Oxygen,Ubuntu,Cantarell,Fira Sans,Droid Sans,Helvetica Neue,sans-serif" font-size="5.6" fill="#9fadbd" x="46" y="51.986">Nobunaga no Shinobi [S3]</text><path fill="#151f2e" stroke="#9fadbd" d="M-190 62H10v8h-200zM10 62h216.667v8H10z"/><text font-family="-apple-system,BlinkMacSystemFont,Segoe UI,Oxygen,Ubuntu,Cantarell,Fira Sans,Droid Sans,Helvetica Neue,sans-serif" font-size="5.6" fill="#9fadbd" x="12.667" y="67.986">Miss Monochrome The Animation 3</text><path fill="#151f2e" stroke="#9fadbd" d="M226.667 62h200v8h-200z"/><text font-family="-apple-system,BlinkMacSystemFont,Segoe UI,Oxygen,Ubuntu,Cantarell,Fira Sans,Droid Sans,Helvetica Neue,sans-serif" font-size="5.6" fill="#9fadbd" x="229.333" y="67.986">Isekai Quartet</text><path fill="#151f2e" stroke="#9fadbd" d="M-23.333 86h200v8h-200z"/><text font-family="-apple-system,BlinkMacSystemFont,Segoe UI,Oxygen,Ubuntu,Cantarell,Fira Sans,Droid Sans,Helvetica Neue,sans-serif" font-size="5.6" fill="#9fadbd" x="5" y="91.986">Shinryaku! Ika Musume</text><path fill="#151f2e" stroke="#9fadbd" d="M176.667 86h200v8h-200z"/><text font-family="-apple-system,BlinkMacSystemFont,Segoe UI,Oxygen,Ubuntu,Cantarell,Fira Sans,Droid Sans,Helvetica Neue,sans-serif" font-size="5.6" fill="#9fadbd" x="179.333" y="91.986">Watashi Nouryoku wa Heikinchi de tte Itta yo ne!</text><path fill="#151f2e" stroke="#9fadbd" d="M-156.667 110h400v8h-400z"/><text font-family="-apple-system,BlinkMacSystemFont,Segoe UI,Oxygen,Ubuntu,Cantarell,Fira Sans,Droid Sans,Helvetica Neue,sans-serif" font-size="5.6" fill="#9fadbd" x="5" y="115.986">Yama no Susume 2</text><path fill="#151f2e" stroke="#9fadbd" d="M143.333 110h33.333v8h-33.333z"/><path fill="#151f2e" stroke="#9fadbd" d="M160 110h183.333v8H160z"/><text font-family="-apple-system,BlinkMacSystemFont,Segoe UI,Oxygen,Ubuntu,Cantarell,Fira Sans,Droid Sans,Helvetica Neue,sans-serif" font-size="5.6" fill="#9fadbd" x="162.667" y="115.986">Moyashimon Returns</text><path fill="#151f2e" stroke="#9fadbd" d="M-106.667 134h200v8h-200z"/><text font-family="-apple-system,BlinkMacSystemFont,Segoe UI,Oxygen,Ubuntu,Cantarell,Fira Sans,Droid Sans,Helvetica Neue,sans-serif" font-size="5.6" fill="#9fadbd" x="5" y="139.986">Amanchu!</text><path fill="#151f2e" stroke="#9fadbd" d="M93.333 134h200v8h-200z"/><text font-family="-apple-system,BlinkMacSystemFont,Segoe UI,Oxygen,Ubuntu,Cantarell,Fira Sans,Droid Sans,Helvetica Neue,sans-serif" font-size="5.6" fill="#9fadbd" x="96" y="139.986">Uchi no Ko no Tame Naraba</text><path fill="#151f2e" stroke="#9fadbd" d="M293.333 134H510v8H293.333z"/><text font-family="-apple-system,BlinkMacSystemFont,Segoe UI,Oxygen,Ubuntu,Cantarell,Fira Sans,Droid Sans,Helvetica Neue,sans-serif" font-size="5.6" fill="#9fadbd" x="296" y="139.986">Yama no Susume Third Season</text><path fill="#151f2e" stroke="#9fadbd" d="M210 158h16.667v8H210z"/><text font-family="-apple-system,BlinkMacSystemFont,Segoe UI,Oxygen,Ubuntu,Cantarell,Fira Sans,Droid Sans,Helvetica Neue,sans-serif" font-size="5.6" fill="#9fadbd" x="229.333" y="163.986">Hanasaki Kurodino Romantan</text><path fill="#151f2e" stroke="#9fadbd" d="M-6.667 166H10v8H-6.667z"/><text font-family="-apple-system,BlinkMacSystemFont,Segoe UI,Oxygen,Ubuntu,Cantarell,Fira Sans,Droid Sans,Helvetica Neue,sans-serif" font-size="5.6" fill="#9fadbd" x="12.667" y="171.986">Gochuumon wa Usagi Desu ka Sing for You</text><text font-family="-apple-system,BlinkMacSystemFont,Segoe UI,Oxygen,Ubuntu,Cantarell,Fira Sans,Droid Sans,Helvetica Neue,sans-serif" font-size="20" fill="#9fadbd" x="10" y="31.377" stroke-width="5" stroke="#0b1622" paint-order="stroke">Planned anime</text></g></svg>