<svg xmlns="http://www.w3.org/2000/svg" viewBox="0 0 320 180"><path fill="#fff" d="M0 0h320v180H0z"/><style>@keyframes fade{0%,73%,to{opacity:0}75%,98%{opacity:1}}@keyframes fade2{0%,75%,to{opacity:0}77%,98%{opacity:1}}@keyframes score-draw{73%{stroke-dashoffset:47}72%,80%,to{stroke-dashoffset:0}}@keyframes episode-draw{73%{stroke-dashoffset:473}72%,80%,to{stroke-dashoffset:0}}</style><g style="animation:fade ease-in 32s -24s infinite"><text font-family="-apple-system,BlinkMacSystemFont,Segoe UI,Oxygen,Ubuntu,Cantarell,Fira Sans,Droid Sans,Helvetica Neue,sans-serif" font-size="20" x="10" y="31.377">Nota média na última semana</text><path fill="none" stroke="#333" stroke-dasharray="1" d="M10 170h300M10 158h300M10 146h300M10 134h300M10 122h300M10 110h300M10 98h300M10 86h300M10 74h300M10 62h300M10 50h300"/><path stroke="#df6300" d="M310 96.8V77.6"/><path fill="none" stroke="#000" stroke-dasharray="47" marker-mid="url(#SvgjsMarker1002)" style="animation:score-draw ease-in 32s -24s infinite" d="M263.846 88.4H310"/><text font-family="-apple-system,BlinkMacSystemFont,Segoe UI,Oxygen,Ubuntu,Cantarell,Fira Sans,Droid Sans,Helvetica Neue,sans-serif" font-size="60" fill="#df6300" stroke-width="5" stroke="#fff" paint-order="stroke" x="10" y="94.131">6.8</text><text font-family="-apple-system,BlinkMacSystemFont,Segoe UI,Oxygen,Ubuntu,Cantarell,Fira Sans,Droid Sans,Helvetica Neue,sans-serif" font-size="20" fill="#df6300" stroke-width="5" stroke="#fff" paint-order="stroke" stroke-linejoin="round" x="15" y="116.377">↓ NaN%</text></g><defs><marker markerWidth="3" markerHeight="3" refX="1.5" refY="1.5" viewBox="0 0 3 3" orient="auto" id="SvgjsMarker1002"><circle r="1.5" cx="1.5" cy="1.5"/></marker><marker markerWidth="3" markerHeight="3" refX="1.5" refY="1.5" viewBox="0 0 3 3" orient="auto" id="SvgjsMarker1003"><circle r="1.5" cx="1.5" cy="1.5"/></marker></defs><g style="animation:fade ease-in 32s -16s infinite"><text font-family="-apple-system,BlinkMacSystemFont,Segoe UI,Oxygen,Ubuntu,Cantarell,Fira Sans,Droid Sans,Helvetica Neue,sans-serif" font-size="20" x="10" y="31.377">Episódios vistos no último mês</text><path fill="none" stroke="#333" stroke-dasharray="1" d="M10 170h300M10 130h300M10 90h300M10 50h300"/><path fill="none" stroke="#000" stroke-dasharray="473" marker-mid="url(#SvgjsMarker1003)" style="animation:episode-draw ease-in 32s -16s infinite" d="M10 170h10.345H30.69h10.344H51.38h10.345H72.07h10.345 10.345 10.344 10.345 10.345 10.345 10.345 10.345 10.344 10.345 10.345 10.345 10.345 10.345 10.344 10.345 10.345 10.345 10.345 10.345l10.344-40 10.345 40L310 50"/><text font-family="-apple-system,BlinkMacSystemFont,Segoe UI,Oxygen,Ubuntu,Cantarell,Fira Sans,Droid Sans,Helvetica Neue,sans-serif" font-size="60" fill="#df6300" stroke-width="5" stroke="#fff" paint-order="stroke" x="10" y="94.131">4</text><text font-family="-apple-system,BlinkMacSystemFont,Segoe UI,Oxygen,Ubuntu,Cantarell,Fira Sans,Droid Sans,Helvetica Neue,sans-serif" font-size="20" fill="#df6300" stroke-width="5" stroke="#fff" paint-order="stroke" stroke-linejoin="round" x="15" y="116.377">↑ Infinity%</text></g><g style="animation:fade ease-in 32s -8s infinite" font-family="-apple-system,BlinkMacSystemFont,Segoe UI,Oxygen,Ubuntu,Cantarell,Fira Sans,Droid Sans,Helvetica Neue,sans-serif"><text font-size="20" x="10" y="31.377">Gêneros das últimas 2 semanas</text><text font-size="15" x="10" y="66.033" style="animation:fade2 ease-in 32s -9s infinite"><tspan fill="#df6300">1 </tspan><tspan>Ação</tspan></text><text font-size="8" x="22" y="78.551" style="animation:fade2 ease-in 32s -8.5s infinite">4 episódios</text><text font-size="15" x="165" y="66.033" style="animation:fade2 ease-in 32s -8.75s infinite"><tspan fill="#df6300">1 </tspan><tspan>Comédia</tspan></text><text font-size="8" x="177" y="78.551" style="animation:fade2 ease-in 32s -8.25s infinite">4 episódios</text><text font-size="15" x="10" y="106.033" style="animation:fade2 ease-in 32s -8.5s infinite"><tspan fill="#df6300">1 </tspan><tspan>Aventura</tspan></text><text font-size="8" x="22" y="118.551" style="animation:fade2 ease-in 32s -8s infinite">4 episódios</text></g><g style="animation:fade ease-in 32s 0s infinite"><path stroke="#333" d="M110 0v180"/><path stroke="#df6300" d="M210 0v180"/><text font-family="-apple-system,BlinkMacSystemFont,Segoe UI,Oxygen,Ubuntu,Cantarell,Fira Sans,Droid Sans,Helvetica Neue,sans-serif" font-size="7" fill="#333" x="5" y="174.482">PENÚLTIMA SEMANA</text><text font-family="-apple-system,BlinkMacSystemFont,Segoe UI,Oxygen,Ubuntu,Cantarell,Fira Sans,Droid Sans,Helvetica Neue,sans-serif" font-size="7" fill="#333" x="115" y="174.482">ÚLTIMA SEMANA</text><text font-family="-apple-system,BlinkMacSystemFont,Segoe UI,Oxygen,Ubuntu,Cantarell,Fira Sans,Droid Sans,Helvetica Neue,sans-serif" font-size="7" fill="#333" x="215" y="174.482">PRÓXIMA SEMANA</text><path fill="#fff" stroke="#000" d="M-615 50h5250v24H-615z"/><text font-family="-apple-system,BlinkMacSystemFont,Segoe UI,Oxygen,Ubuntu,Cantarell,Fira Sans,Droid Sans,Helvetica Neue,sans-serif" font-size="18" x="5" y="69.239">Holo no Graffiti</text><path fill="#fff" stroke="#000" d="M-290 80H35v24h-325z"/><text font-family="-apple-system,BlinkMacSystemFont,Segoe UI,Oxygen,Ubuntu,Cantarell,Fira Sans,Droid Sans,Helvetica Neue,sans-serif" font-size="18" x="5" y="99.239">Working!! 2</text><path fill="#fff" stroke="#000" d="M35 80h100v24H35z"/><text font-family="-apple-system,BlinkMacSystemFont,Segoe UI,Oxygen,Ubuntu,Cantarell,Fira Sans,Droid Sans,Helvetica Neue,sans-serif" font-size="18" x="45" y="99.239">Do It Yourself!!</text><path fill="#fff" stroke="#000" d="M-215 110H85v24h-300z"/><text font-family="-apple-system,BlinkMacSystemFont,Segoe UI,Oxygen,Ubuntu,Cantarell,Fira Sans,Droid Sans,Helvetica Neue,sans-serif" font-size="18" x="5" y="129.239">Sasami-san@Ganbaranai</text><path fill="#fff" stroke="#000" d="M85 110h50v24H85z"/><text font-family="-apple-system,BlinkMacSystemFont,Segoe UI,Oxygen,Ubuntu,Cantarell,Fira Sans,Droid Sans,Helvetica Neue,sans-serif" font-size="18" x="145" y="129.239">Kawaii dake ja Nai Shikimori-san</text><path fill="#fff" stroke="#000" d="M85 140h25v24H85z"/><text font-family="-apple-system,BlinkMacSystemFont,Segoe UI,Oxygen,Ubuntu,Cantarell,Fira Sans,Droid Sans,Helvetica Neue,sans-serif" font-size="18" x="120" y="159.239">Jaku-Chara Tomozaki-kun</text><text font-family="-apple-system,BlinkMacSystemFont,Segoe UI,Oxygen,Ubuntu,Cantarell,Fira Sans,Droid Sans,Helvetica Neue,sans-serif" font-size="20" x="10" y="31.377">Animes planejados</text></g><text font-family="-apple-system,BlinkMacSystemFont,Segoe UI,Oxygen,Ubuntu,Cantarell,Fira Sans,Droid Sans,Helvetica Neue,sans-serif" font-size="5" fill="#333" x="310" y="12.344" text-anchor="end" opacity=".5">Atualizado em 29/03/2024</text></svg>