<svg xmlns="http://www.w3.org/2000/svg" viewBox="0 0 320 180"><path fill="#151f2e" d="M0 0h320v180H0z"/><style>@keyframes fade{0%,73%,to{opacity:0}75%,98%{opacity:1}}@keyframes fade2{0%,75%,to{opacity:0}77%,98%{opacity:1}}@keyframes score-draw{73%{stroke-dashoffset:304}72%,80%,to{stroke-dashoffset:0}}@keyframes episode-draw{73%{stroke-dashoffset:894}72%,80%,to{stroke-dashoffset:0}}</style><g style="animation:fade ease-in 32s -24s infinite"><text font-family="-apple-system,BlinkMacSystemFont,Segoe UI,Oxygen,Ubuntu,Cantarell,Fira Sans,Droid Sans,Helvetica Neue,sans-serif" font-size="20" fill="#9fadbd" x="10" y="31.377">Mean score last week</text><path fill="none" stroke="#485464" stroke-dasharray="1" d="M10 170h300M10 158h300M10 146h300M10 134h300M10 122h300M10 110h300M10 98h300M10 86h300M10 74h300M10 62h300M10 50h300"/><path stroke="#0dadff" d="M10 80v-4.8M33.077 80v-4.8M56.154 82.4V63.2M79.231 81.2V68M102.308 82.4v-7.2M125.385 80v-6M148.462 82.4V66.8M171.538 83.6v-12M194.615 84.8V69.2M217.692 87.2V60.8M240.769 87.2V76.4M263.846 77.6v-1.2M286.923 80v-4.8M310 88.4V71.6"/><path fill="none" stroke="#9fadbd" stroke-dasharray="304" marker-mid="url(#SvgjsMarker1000)" style="animation:score-draw ease-in 32s -24s infinite" d="M10 77.6h23.077l23.077-4.8L79.23 74l23.077 4.8 23.077-2.4h23.077 23.076 23.077l23.077-1.2 23.077 7.2 23.077-6 23.077 1.2L310 80"/><text font-family="-apple-system,BlinkMacSystemFont,Segoe UI,Oxygen,Ubuntu,Cantarell,Fira Sans,Droid Sans,Helvetica Neue,sans-serif" font-size="60" fill="#0dadff" stroke-width="5" stroke="#151f2e" paint-order="stroke" x="10" y="94.131">7.7</text><text font-family="-apple-system,BlinkMacSystemFont,Segoe UI,Oxygen,Ubuntu,Cantarell,Fira Sans,Droid Sans,Helvetica Neue,sans-serif" font-size="20" fill="#0dadff" stroke-width="5" stroke="#151f2e" paint-order="stroke" stroke-linejoin="round" x="15" y="116.377">↓ 2%</text></g><defs><marker markerWidth="3" markerHeight="3" refX="1.5" refY="1.5" viewBox="0 0 3 3" orient="auto" id="SvgjsMarker1000"><circle r="1.5" cx="1.5" cy="1.5" fill="#9fadbd"/></marker><marker markerWidth="3" markerHeight="3" refX="1.5" refY="1.5" viewBox="0 0 3 3" orient="auto" id="SvgjsMarker1001"><circle r="1.5" cx="1.5" cy="1.5" fill="#9fadbd"/></marker></defs><g style="animation:fade ease-in 32s -16s infinite"><text font-family="-apple-system,BlinkMacSystemFont,Segoe UI,Oxygen,Ubuntu,Cantarell,Fira Sans,Droid Sans,Helvetica Neue,sans-serif" font-size="20" fill="#9fadbd" x="10" y="31.377">Watched episodes last month</text><path fill="none" stroke="#485464" stroke-dasharray="1" d="M10 170h300M10 146h300M10 122h300M10 98h300M10 74h300M10 50h300"/><path fill="none" stroke="#9fadbd" stroke-dasharray="894" marker-mid="url(#SvgjsMarker1001)" style="animation:episode-draw ease-in 32s -16s infinite" d="M10 146l10.345 24L30.69 98l10.344 48H51.38l10.345 24 10.345-24 10.345-48 10.345 48 10.344-24h10.345 10.345l10.345-48 10.345 24h10.345l10.344-24 10.345-24 10.345 48 10.345-24 10.345 24 10.345 24 10.344-48 10.345 48h10.345l10.345-24 10.345 48h10.345l10.344 24 10.345-24L310 122"/><text font-family="-apple-system,BlinkMacSystemFont,Segoe UI,Oxygen,Ubuntu,Cantarell,Fira Sans,Droid Sans,Helvetica Neue,sans-serif" font-size="60" fill="#0dadff" stroke-width="5" stroke="#151f2e" paint-order="stroke" x="10" y="94.131">64</text><text font-family="-apple-system,BlinkMacSystemFont,Segoe UI,Oxygen,Ubuntu,Cantarell,Fira Sans,Droid Sans,Helvetica Neue,sans-serif" font-size="20" fill="#0dadff" stroke-width="5" stroke="#151f2e" paint-order="stroke" stroke-linejoin="round" x="15" y="116.377">↓ 23%</text></g><g style="animation:fade ease-in 32s -8s infinite" font-family="-apple-system,BlinkMacSystemFont,Segoe UI,Oxygen,Ubuntu,Cantarell,Fira Sans,Droid Sans,Helvetica Neue,sans-serif" fill="#9fadbd"><text font-size="20" x="10" y="31.377">Top genres last two weeks</text><text font-size="15" x="10" y="66.033" style="animation:fade2 ease-in 32s -9s infinite"><tspan fill="#0dadff">1 </tspan><tspan>Slice of Life</tspan></text><text font-size="8" x="22" y="78.551" style="animation:fade2 ease-in 32s -8.5s infinite">32 episodes</text><text font-size="15" x="165" y="66.033" style="animation:fade2 ease-in 32s -8.75s infinite"><tspan fill="#0dadff">1 </tspan><tspan>Comedy</tspan></text><text font-size="8" x="177" y="78.551" style="animation:fade2 ease-in 32s -8.25s infinite">32 episodes</text><text font-size="15" x="10" y="106.033" style="animation:fade2 ease-in 32s -8.5s infinite"><tspan fill="#0dadff">3 </tspan><tspan>Romance</tspan></text><text font-size="8" x="22" y="118.551" style="animation:fade2 ease-in 32s -8s infinite">15 episodes</text><text font-size="15" x="165" y="106.033" style="animation:fade2 ease-in 32s -8.25s infinite"><tspan fill="#0dadff">4 </tspan><tspan>Ecchi</tspan></text><text font-size="8" x="177" y="118.551" style="animation:fade2 ease-in 32s -7.75s infinite">8 episodes</text><text font-size="15" x="10" y="146.033" style="animation:fade2 ease-in 32s -8s infinite"><tspan fill="#0dadff">5 </tspan><tspan>Fantasy</tspan></text><text font-size="8" x="22" y="158.551" style="animation:fade2 ease-in 32s -7.5s infinite">3 episodes</text><text font-size="15" x="165" y="146.033" style="animation:fade2 ease-in 32s -7.75s infinite"><tspan fill="#0dadff">5 </tspan><tspan>Adventure</tspan></text><text font-size="8" x="177" y="158.551" style="animation:fade2 ease-in 32s -7.25s infinite">3 episodes</text></g><g style="animation:fade ease-in 32s 0s infinite"><path stroke="#485464" d="M110 0v180"/><path stroke="#0dadff" d="M210 0v180"/><text font-family="-apple-system,BlinkMacSystemFont,Segoe UI,Oxygen,Ubuntu,Cantarell,Fira Sans,Droid Sans,Helvetica Neue,sans-serif" font-size="7" fill="#485464" x="5" y="174.482">2ND LAST WEEK</text><text font-family="-apple-system,BlinkMacSystemFont,Segoe UI,Oxygen,Ubuntu,Cantarell,Fira Sans,Droid Sans,Helvetica Neue,sans-serif" font-size="7" fill="#485464" x="115" y="174.482">LAST WEEK</text><text font-family="-apple-system,BlinkMacSystemFont,Segoe UI,Oxygen,Ubuntu,Cantarell,Fira Sans,Droid Sans,Helvetica Neue,sans-serif" font-size="7" fill="#485464" x="215" y="174.482">NEXT WEEK</text><path fill="#151f2e" stroke="#9fadbd" d="M-190 50h300v10.667h-300z"/><text font-family="-apple-system,BlinkMacSystemFont,Segoe UI,Oxygen,Ubuntu,Cantarell,Fira Sans,Droid Sans,Helvetica Neue,sans-serif" font-size="8" fill="#9fadbd" x="5" y="58.551">Senryuu Shoujo</text><path fill="#151f2e" stroke="#9fadbd" d="M110 50h600v10.667H110z"/><text font-family="-apple-system,BlinkMacSystemFont,Segoe UI,Oxygen,Ubuntu,Cantarell,Fira Sans,Droid Sans,Helvetica Neue,sans-serif" font-size="8" fill="#9fadbd" x="114.444" y="58.551">TV Yarou Nanaana</text><path fill="#151f2e" stroke="#9fadbd" d="M-165 63.333h300V74h-300z"/><text font-family="-apple-system,BlinkMacSystemFont,Segoe UI,Oxygen,Ubuntu,Cantarell,Fira Sans,Droid Sans,Helvetica Neue,sans-serif" font-size="8" fill="#9fadbd" x="5" y="71.884">Gaikotsu Shotenin Honda-san</text><path fill="#151f2e" stroke="#9fadbd" d="M135 63.333h25V74h-25zM160 63.333h300V74H160z"/><text font-family="-apple-system,BlinkMacSystemFont,Segoe UI,Oxygen,Ubuntu,Cantarell,Fira Sans,Droid Sans,Helvetica Neue,sans-serif" font-size="8" fill="#9fadbd" x="164.444" y="71.884">Wooser no Sono Higurashi</text><path fill="#151f2e" stroke="#9fadbd" d="M-290 76.667H10v10.667h-300zM10 76.667h250v10.667H10z"/><text font-family="-apple-system,BlinkMacSystemFont,Segoe UI,Oxygen,Ubuntu,Cantarell,Fira Sans,Droid Sans,Helvetica Neue,sans-serif" font-size="8" fill="#9fadbd" x="14.444" y="85.217">Hajimete no Gal</text><path fill="#151f2e" stroke="#9fadbd" d="M260 76.667h450v10.667H260z"/><text font-family="-apple-system,BlinkMacSystemFont,Segoe UI,Oxygen,Ubuntu,Cantarell,Fira Sans,Droid Sans,Helvetica Neue,sans-serif" font-size="8" fill="#9fadbd" x="264.444" y="85.217">Chibi Maruko-chan</text><path fill="#151f2e" stroke="#9fadbd" d="M-65 90h300v10.667H-65z"/><text font-family="-apple-system,BlinkMacSystemFont,Segoe UI,Oxygen,Ubuntu,Cantarell,Fira Sans,Droid Sans,Helvetica Neue,sans-serif" font-size="8" fill="#9fadbd" x="5" y="98.551">Yuri!!! on Ice</text><path fill="#151f2e" stroke="#9fadbd" d="M235 90h300v10.667H235z"/><text font-family="-apple-system,BlinkMacSystemFont,Segoe UI,Oxygen,Ubuntu,Cantarell,Fira Sans,Droid Sans,Helvetica Neue,sans-serif" font-size="8" fill="#9fadbd" x="239.444" y="98.551">Shirobako</text><path fill="#151f2e" stroke="#9fadbd" d="M-140 103.333h300V114h-300z"/><text font-family="-apple-system,BlinkMacSystemFont,Segoe UI,Oxygen,Ubuntu,Cantarell,Fira Sans,Droid Sans,Helvetica Neue,sans-serif" font-size="8" fill="#9fadbd" x="5" y="111.884">Amanchu! Advance</text><path fill="#151f2e" stroke="#9fadbd" d="M160 103.333h300V114H160z"/><text font-family="-apple-system,BlinkMacSystemFont,Segoe UI,Oxygen,Ubuntu,Cantarell,Fira Sans,Droid Sans,Helvetica Neue,sans-serif" font-size="8" fill="#9fadbd" x="164.444" y="111.884">Yuru Camp△</text><path fill="#151f2e" stroke="#9fadbd" d="M35 116.667h25v10.667H35z"/><text font-family="-apple-system,BlinkMacSystemFont,Segoe UI,Oxygen,Ubuntu,Cantarell,Fira Sans,Droid Sans,Helvetica Neue,sans-serif" font-size="8" fill="#9fadbd" x="64.444" y="125.217">ORESUKI OVA</text><path fill="#151f2e" stroke="#9fadbd" d="M135 130h650v10.667H135z"/><text font-family="-apple-system,BlinkMacSystemFont,Segoe UI,Oxygen,Ubuntu,Cantarell,Fira Sans,Droid Sans,Helvetica Neue,sans-serif" font-size="8" fill="#9fadbd" x="139.444" y="138.551">Shin Atashin&apos;chi</text><text font-family="-apple-system,BlinkMacSystemFont,Segoe UI,Oxygen,Ubuntu,Cantarell,Fira Sans,Droid Sans,Helvetica Neue,sans-serif" font-size="20" fill="#9fadbd" x="10" y="31.377">Planned anime</text></g></svg>