<svg xmlns="http://www.w3.org/2000/svg" viewBox="0 0 320 180"><path fill="#fff" d="M0 0h320v180H0z"/><style>@keyframes fade{0%,73%,to{opacity:0}75%,98%{opacity:1}}@keyframes fade2{0%,75%,to{opacity:0}77%,98%{opacity:1}}@keyframes score-draw{73%{stroke-dashoffset:311}72%,80%,to{stroke-dashoffset:0}}@keyframes episode-draw{73%{stroke-dashoffset:1044}72%,80%,to{stroke-dashoffset:0}}</style><g style="animation:fade ease-in 32s -24s infinite"><text font-family="-apple-system,BlinkMacSystemFont,Segoe UI,Oxygen,Ubuntu,Cantarell,Fira Sans,Droid Sans,Helvetica Neue,sans-serif" font-size="20" x="10" y="31.377">Nota média na última semana</text><path fill="none" stroke="#333" stroke-dasharray="1" d="M10 170h300M10 158h300M10 146h300M10 134h300M10 122h300M10 110h300M10 98h300M10 86h300M10 74h300M10 62h300M10 50h300"/><path stroke="#df6300" d="M10 84.8v-12M56.154 77.6V68M79.231 83.6v-12M102.308 84.8v-7.2M125.385 77.6v-2.4M148.462 119.6v-48M171.538 83.6V72.8M194.615 80V69.2M217.692 118.4V71.6M263.846 77.6v-2.4M286.923 77.6v-2.4M310 123.2v-54"/><path fill="none" stroke="#000" stroke-dasharray="311" marker-mid="url(#SvgjsMarker1002)" style="animation:score-draw ease-in 32s -24s infinite" d="M10 76.4l23.077 1.2L56.154 74l23.077 2.4 23.077 4.8 23.077-4.8 23.077 8.4 23.076-7.2 23.077-2.4 23.077 8.4 23.077-13.2 23.077 6h23.077L310 81.2"/><text font-family="-apple-system,BlinkMacSystemFont,Segoe UI,Oxygen,Ubuntu,Cantarell,Fira Sans,Droid Sans,Helvetica Neue,sans-serif" font-size="60" fill="#df6300" stroke-width="5" stroke="#fff" paint-order="stroke" x="10" y="94.131">7.6</text></g><defs><marker markerWidth="3" markerHeight="3" refX="1.5" refY="1.5" viewBox="0 0 3 3" orient="auto" id="SvgjsMarker1002"><circle r="1.5" cx="1.5" cy="1.5"/></marker><marker markerWidth="3" markerHeight="3" refX="1.5" refY="1.5" viewBox="0 0 3 3" orient="auto" id="SvgjsMarker1003"><circle r="1.5" cx="1.5" cy="1.5"/></marker></defs><g style="animation:fade ease-in 32s -16s infinite"><text font-family="-apple-system,BlinkMacSystemFont,Segoe UI,Oxygen,Ubuntu,Cantarell,Fira Sans,Droid Sans,Helvetica Neue,sans-serif" font-size="20" x="10" y="31.377">Episódios vistos no último mês</text><path fill="none" stroke="#333" stroke-dasharray="1" d="M10 170h300M10 158h300M10 146h300M10 134h300M10 122h300M10 110h300M10 98h300M10 86h300M10 74h300M10 62h300M10 50h300"/><path fill="none" stroke="#000" stroke-dasharray="1044" marker-mid="url(#SvgjsMarker1003)" style="animation:episode-draw ease-in 32s -16s infinite" d="M10 110l10.345-60 10.345 60 10.344-24 10.345 60 10.345-36 10.345 36 10.345-48 10.345 36 10.344-24 10.345 24 10.345-60 10.345 48 10.345 12 10.345-12h10.344l10.345 12 10.345 24 10.345-24 10.345-36 10.345 48 10.344-24 10.345-12 10.345-60 10.345 36 10.345 24 10.345 48 10.344-12h10.345L310 74"/><text font-family="-apple-system,BlinkMacSystemFont,Segoe UI,Oxygen,Ubuntu,Cantarell,Fira Sans,Droid Sans,Helvetica Neue,sans-serif" font-size="60" fill="#df6300" stroke-width="5" stroke="#fff" paint-order="stroke" x="10" y="94.131">135</text><text font-family="-apple-system,BlinkMacSystemFont,Segoe UI,Oxygen,Ubuntu,Cantarell,Fira Sans,Droid Sans,Helvetica Neue,sans-serif" font-size="20" fill="#df6300" stroke-width="5" stroke="#fff" paint-order="stroke" stroke-linejoin="round" x="15" y="116.377">↑ 2%</text></g><g style="animation:fade ease-in 32s -8s infinite" font-family="-apple-system,BlinkMacSystemFont,Segoe UI,Oxygen,Ubuntu,Cantarell,Fira Sans,Droid Sans,Helvetica Neue,sans-serif"><text font-size="20" x="10" y="31.377">Gêneros das últimas 2 semanas</text><text font-size="15" x="10" y="66.033" style="animation:fade2 ease-in 32s -9s infinite"><tspan fill="#df6300">1 </tspan><tspan>Comédia</tspan></text><text font-size="8" x="22" y="78.551" style="animation:fade2 ease-in 32s -8.5s infinite">43 episódios</text><text font-size="15" x="165" y="66.033" style="animation:fade2 ease-in 32s -8.75s infinite"><tspan fill="#df6300">2 </tspan><tspan>Cotidiano</tspan></text><text font-size="8" x="177" y="78.551" style="animation:fade2 ease-in 32s -8.25s infinite">32 episódios</text><text font-size="15" x="10" y="106.033" style="animation:fade2 ease-in 32s -8.5s infinite"><tspan fill="#df6300">3 </tspan><tspan>Fantasia</tspan></text><text font-size="8" x="22" y="118.551" style="animation:fade2 ease-in 32s -8s infinite">12 episódios</text><text font-size="15" x="165" y="106.033" style="animation:fade2 ease-in 32s -8.25s infinite"><tspan fill="#df6300">4 </tspan><tspan>Romance</tspan></text><text font-size="8" x="177" y="118.551" style="animation:fade2 ease-in 32s -7.75s infinite">10 episódios</text><text font-size="15" x="10" y="146.033" style="animation:fade2 ease-in 32s -8s infinite"><tspan fill="#df6300">4 </tspan><tspan>Sobrenatural</tspan></text><text font-size="8" x="22" y="158.551" style="animation:fade2 ease-in 32s -7.5s infinite">10 episódios</text><text font-size="15" x="165" y="146.033" style="animation:fade2 ease-in 32s -7.75s infinite"><tspan fill="#df6300">6 </tspan><tspan>Ação</tspan></text><text font-size="8" x="177" y="158.551" style="animation:fade2 ease-in 32s -7.25s infinite">8 episódios</text></g><g style="animation:fade ease-in 32s 0s infinite"><path stroke="#333" d="M110 0v180"/><path stroke="#df6300" d="M210 0v180"/><text font-family="-apple-system,BlinkMacSystemFont,Segoe UI,Oxygen,Ubuntu,Cantarell,Fira Sans,Droid Sans,Helvetica Neue,sans-serif" font-size="7" fill="#333" x="5" y="174.482">PENÚLTIMA SEMANA</text><text font-family="-apple-system,BlinkMacSystemFont,Segoe UI,Oxygen,Ubuntu,Cantarell,Fira Sans,Droid Sans,Helvetica Neue,sans-serif" font-size="7" fill="#333" x="115" y="174.482">ÚLTIMA SEMANA</text><text font-family="-apple-system,BlinkMacSystemFont,Segoe UI,Oxygen,Ubuntu,Cantarell,Fira Sans,Droid Sans,Helvetica Neue,sans-serif" font-size="7" fill="#333" x="215" y="174.482">PRÓXIMA SEMANA</text><path fill="#fff" stroke="#000" d="M-256.667 50h833.333v14.4h-833.333z"/><text font-family="-apple-system,BlinkMacSystemFont,Segoe UI,Oxygen,Ubuntu,Cantarell,Fira Sans,Droid Sans,Helvetica Neue,sans-serif" font-size="10.8" x="5" y="61.544">Gakkatsu!</text><path fill="#fff" stroke="#000" d="M143.333 50h400v14.4h-400z"/><text font-family="-apple-system,BlinkMacSystemFont,Segoe UI,Oxygen,Ubuntu,Cantarell,Fira Sans,Droid Sans,Helvetica Neue,sans-serif" font-size="10.8" x="149.333" y="61.544">Getsuyoubi no Tawawa</text><path fill="#fff" stroke="#000" d="M-223.333 68H210v14.4h-433.333z"/><text font-family="-apple-system,BlinkMacSystemFont,Segoe UI,Oxygen,Ubuntu,Cantarell,Fira Sans,Droid Sans,Helvetica Neue,sans-serif" font-size="10.8" x="5" y="79.544">Micchiri Neko</text><path fill="#fff" stroke="#000" d="M210 68h800v14.4H210z"/><text font-family="-apple-system,BlinkMacSystemFont,Segoe UI,Oxygen,Ubuntu,Cantarell,Fira Sans,Droid Sans,Helvetica Neue,sans-serif" font-size="10.8" x="216" y="79.544">Wakaokami wa Shougakusei!</text><path fill="#fff" stroke="#000" d="M-156.667 86h2833.333v14.4H-156.667z"/><text font-family="-apple-system,BlinkMacSystemFont,Segoe UI,Oxygen,Ubuntu,Cantarell,Fira Sans,Droid Sans,Helvetica Neue,sans-serif" font-size="10.8" x="5" y="97.544">Chibi Maruko-chan</text><path fill="#fff" stroke="#000" d="M-123.333 104h200v14.4h-200z"/><text font-family="-apple-system,BlinkMacSystemFont,Segoe UI,Oxygen,Ubuntu,Cantarell,Fira Sans,Droid Sans,Helvetica Neue,sans-serif" font-size="10.8" x="5" y="115.544">Imouto sae Ireba Ii</text><path fill="#fff" stroke="#000" d="M76.667 104H510v14.4H76.667z"/><text font-family="-apple-system,BlinkMacSystemFont,Segoe UI,Oxygen,Ubuntu,Cantarell,Fira Sans,Droid Sans,Helvetica Neue,sans-serif" font-size="10.8" x="82.667" y="115.544">Seitokai Yakuindomo S2</text><path fill="#fff" stroke="#000" d="M-23.333 122H410v14.4H-23.333z"/><text font-family="-apple-system,BlinkMacSystemFont,Segoe UI,Oxygen,Ubuntu,Cantarell,Fira Sans,Droid Sans,Helvetica Neue,sans-serif" font-size="10.8" x="5" y="133.544">The iDOLM@STER Cinderella Girls</text><path fill="#fff" stroke="#000" d="M-190 140h4300v14.4H-190z"/><text font-family="-apple-system,BlinkMacSystemFont,Segoe UI,Oxygen,Ubuntu,Cantarell,Fira Sans,Droid Sans,Helvetica Neue,sans-serif" font-size="10.8" x="5" y="151.544">Holo no Graffiti</text><text font-family="-apple-system,BlinkMacSystemFont,Segoe UI,Oxygen,Ubuntu,Cantarell,Fira Sans,Droid Sans,Helvetica Neue,sans-serif" font-size="20" x="10" y="31.377">Animes planejados</text></g><text font-family="-apple-system,BlinkMacSystemFont,Segoe UI,Oxygen,Ubuntu,Cantarell,Fira Sans,Droid Sans,Helvetica Neue,sans-serif" font-size="5" fill="#333" x="310" y="12.344" text-anchor="end" opacity=".5">Atualizado em 19/12/2021</text></svg>