<svg xmlns="http://www.w3.org/2000/svg" viewBox="0 0 320 180"><path fill="#151f2e" d="M0 0h320v180H0z"/><style>@keyframes fade{0%,73%,to{opacity:0}75%,98%{opacity:1}}</style><g style="animation:fade ease-in 32s -24s infinite"><text font-family="-apple-system,BlinkMacSystemFont,Segoe UI,Oxygen,Ubuntu,Cantarell,Fira Sans,Droid Sans,Helvetica Neue,sans-serif" font-size="20" fill="#9fadbd" x="10" y="31.377">Mean score last week</text><path fill="none" stroke="#0b1622" d="M10 170h300M10 158h300M10 146h300M10 134h300M10 122h300M10 110h300M10 98h300M10 86h300M10 74h300M10 62h300M10 50h300"/><path fill="none" stroke="#9fadbd" marker-mid="url(#SvgjsMarker1000)" d="M10 72.8l23.077 6 23.077-1.2L79.23 80l23.077-3.6 23.077-2.4 23.077 4.8 23.076-3.6h23.077l23.077 1.2h23.077l23.077 1.2 23.077-2.4L310 NaN"/><text font-family="-apple-system,BlinkMacSystemFont,Segoe UI,Oxygen,Ubuntu,Cantarell,Fira Sans,Droid Sans,Helvetica Neue,sans-serif" font-size="60" fill="#0dadff" stroke-width="5" stroke="#151f2e" paint-order="stroke" x="10" y="94.131">7.8</text></g><defs><marker markerWidth="3" markerHeight="3" refX="1.5" refY="1.5" viewBox="0 0 3 3" orient="auto" id="SvgjsMarker1000"><circle r="1.5" cx="1.5" cy="1.5" fill="#9fadbd"/></marker><marker markerWidth="3" markerHeight="3" refX="1.5" refY="1.5" viewBox="0 0 3 3" orient="auto" id="SvgjsMarker1001"><circle r="1.5" cx="1.5" cy="1.5" fill="#9fadbd"/></marker></defs><g style="animation:fade ease-in 32s -16s infinite"><text font-family="-apple-system,BlinkMacSystemFont,Segoe UI,Oxygen,Ubuntu,Cantarell,Fira Sans,Droid Sans,Helvetica Neue,sans-serif" font-size="20" fill="#9fadbd" x="10" y="31.377">Watched episodes last week</text><path fill="none" stroke="#0b1622" d="M10 170h300M10 152.857h300M10 135.714h300M10 118.571h300M10 101.429h300M10 84.286h300M10 67.143h300M10 50h300"/><path fill="none" stroke="#9fadbd" marker-mid="url(#SvgjsMarker1001)" d="M10 170l23.077-68.571L56.154 170l23.077-17.143 23.077-68.571 23.077 17.143 23.077 51.428 23.076-51.428 23.077 17.142L217.692 50l23.077 85.714 23.077-17.143 23.077 34.286L310 170"/><text font-family="-apple-system,BlinkMacSystemFont,Segoe UI,Oxygen,Ubuntu,Cantarell,Fira Sans,Droid Sans,Helvetica Neue,sans-serif" font-size="60" fill="#0dadff" stroke-width="5" stroke="#151f2e" paint-order="stroke" x="10" y="94.131">20</text></g><g style="animation:fade ease-in 32s -8s infinite" font-family="-apple-system,BlinkMacSystemFont,Segoe UI,Oxygen,Ubuntu,Cantarell,Fira Sans,Droid Sans,Helvetica Neue,sans-serif" fill="#9fadbd"><text font-size="20" x="10" y="31.377">Top genres last week</text><text font-size="15" x="10" y="66.033"><tspan fill="#0dadff">1 </tspan><tspan>Slice of Life</tspan></text><text font-size="8" x="22" y="78.551">20 episodes</text><text font-size="15" x="165" y="66.033"><tspan fill="#0dadff">1 </tspan><tspan>Comedy</tspan></text><text font-size="8" x="177" y="78.551">20 episodes</text><text font-size="15" x="10" y="106.033"><tspan fill="#0dadff">3 </tspan><tspan>Music</tspan></text><text font-size="8" x="22" y="118.551">8 episodes</text><text font-size="15" x="165" y="106.033"><tspan fill="#0dadff">4 </tspan><tspan>Adventure</tspan></text><text font-size="8" x="177" y="118.551">4 episodes</text><text font-size="15" x="10" y="146.033"><tspan fill="#0dadff">5 </tspan><tspan>Fantasy</tspan></text><text font-size="8" x="22" y="158.551">1 episode</text><text font-size="15" x="165" y="146.033"><tspan fill="#0dadff">5 </tspan><tspan>Sports</tspan></text><text font-size="8" x="177" y="158.551">1 episode</text></g><g style="animation:fade ease-in 32s 0s infinite"><path stroke="#0b1622" d="M135 0v180M185 0v180"/><path fill="#0b1622" stroke="#9fadbd" d="M-90 46.25h650v7.5H-90z"/><text font-family="-apple-system,BlinkMacSystemFont,Segoe UI,Oxygen,Ubuntu,Cantarell,Fira Sans,Droid Sans,Helvetica Neue,sans-serif" font-size="5.25" fill="#9fadbd" x="5" y="51.861">Nobunaga no Shinobi [S3]</text><path fill="#0b1622" stroke="#9fadbd" d="M-140 61.25h325v7.5h-325z"/><text font-family="-apple-system,BlinkMacSystemFont,Segoe UI,Oxygen,Ubuntu,Cantarell,Fira Sans,Droid Sans,Helvetica Neue,sans-serif" font-size="5.25" fill="#9fadbd" x="5" y="66.861">Miss Monochrome The Animation 3</text><path fill="#0b1622" stroke="#9fadbd" d="M185 61.25h300v7.5H185z"/><text font-family="-apple-system,BlinkMacSystemFont,Segoe UI,Oxygen,Ubuntu,Cantarell,Fira Sans,Droid Sans,Helvetica Neue,sans-serif" font-size="5.25" fill="#9fadbd" x="187.5" y="66.861">Isekai Quartet</text><path fill="#0b1622" stroke="#9fadbd" d="M-190 83.75h300v7.5h-300z"/><text font-family="-apple-system,BlinkMacSystemFont,Segoe UI,Oxygen,Ubuntu,Cantarell,Fira Sans,Droid Sans,Helvetica Neue,sans-serif" font-size="5.25" fill="#9fadbd" x="5" y="89.361">Shinryaku! Ika Musume</text><path fill="#0b1622" stroke="#9fadbd" d="M110 83.75h300v7.5H110z"/><text font-family="-apple-system,BlinkMacSystemFont,Segoe UI,Oxygen,Ubuntu,Cantarell,Fira Sans,Droid Sans,Helvetica Neue,sans-serif" font-size="5.25" fill="#9fadbd" x="112.5" y="89.361">Watashi Nouryoku wa Heikinchi de tte Itta yo ne!</text><path fill="#0b1622" stroke="#9fadbd" d="M-390 106.25h600v7.5h-600z"/><text font-family="-apple-system,BlinkMacSystemFont,Segoe UI,Oxygen,Ubuntu,Cantarell,Fira Sans,Droid Sans,Helvetica Neue,sans-serif" font-size="5.25" fill="#9fadbd" x="5" y="111.861">Yama no Susume 2</text><path fill="#0b1622" stroke="#9fadbd" d="M60 106.25h50v7.5H60z"/><path fill="#0b1622" stroke="#9fadbd" d="M85 106.25h275v7.5H85z"/><text font-family="-apple-system,BlinkMacSystemFont,Segoe UI,Oxygen,Ubuntu,Cantarell,Fira Sans,Droid Sans,Helvetica Neue,sans-serif" font-size="5.25" fill="#9fadbd" x="87.5" y="111.861">Moyashimon Returns</text><path fill="#0b1622" stroke="#9fadbd" d="M-15 128.75h300v7.5H-15z"/><text font-family="-apple-system,BlinkMacSystemFont,Segoe UI,Oxygen,Ubuntu,Cantarell,Fira Sans,Droid Sans,Helvetica Neue,sans-serif" font-size="5.25" fill="#9fadbd" x="5" y="134.361">Uchi no Ko no Tame Naraba</text><path fill="#0b1622" stroke="#9fadbd" d="M285 128.75h325v7.5H285z"/><text font-family="-apple-system,BlinkMacSystemFont,Segoe UI,Oxygen,Ubuntu,Cantarell,Fira Sans,Droid Sans,Helvetica Neue,sans-serif" font-size="5.25" fill="#9fadbd" x="287.5" y="134.361">Yama no Susume Third Season</text><path fill="#0b1622" stroke="#9fadbd" d="M160 151.25h25v7.5h-25z"/><text font-family="-apple-system,BlinkMacSystemFont,Segoe UI,Oxygen,Ubuntu,Cantarell,Fira Sans,Droid Sans,Helvetica Neue,sans-serif" font-size="5.25" fill="#9fadbd" x="187.5" y="156.861">Hanasaki Kurodino Romantan</text><text font-family="-apple-system,BlinkMacSystemFont,Segoe UI,Oxygen,Ubuntu,Cantarell,Fira Sans,Droid Sans,Helvetica Neue,sans-serif" font-size="20" fill="#9fadbd" x="10" y="31.377">Planned anime</text></g></svg>