<svg xmlns="http://www.w3.org/2000/svg" viewBox="0 0 320 180"><path fill="#151f2e" d="M0 0h320v180H0z"/><style>@keyframes fade{0%,73%,to{opacity:0}75%,98%{opacity:1}}@keyframes fade2{0%,75%,to{opacity:0}77%,98%{opacity:1}}@keyframes score-draw{73%{stroke-dashoffset:305}72%,80%,to{stroke-dashoffset:0}}@keyframes episode-draw{73%{stroke-dashoffset:964}72%,80%,to{stroke-dashoffset:0}}</style><g style="animation:fade ease-in 32s -24s infinite"><text font-family="-apple-system,BlinkMacSystemFont,Segoe UI,Oxygen,Ubuntu,Cantarell,Fira Sans,Droid Sans,Helvetica Neue,sans-serif" font-size="20" fill="#9fadbd" x="10" y="31.377">Mean score last week</text><path fill="none" stroke="#485464" stroke-dasharray="1" d="M10 170h300M10 158h300M10 146h300M10 134h300M10 122h300M10 110h300M10 98h300M10 86h300M10 74h300M10 62h300M10 50h300"/><path stroke="#0dadff" d="M10 76.4v-3.6M33.077 87.2V66.8M79.231 89.6V68M102.308 76.4v-3.6M125.385 88.4v-18M148.462 80V65.6M171.538 96.8v-30M194.615 113.6V66.8M217.692 78.8V65.6M240.769 108.8V65.6M263.846 111.2V65.6M286.923 80v-7.2M310 107.6V68"/><path fill="none" stroke="#9fadbd" stroke-dasharray="305" marker-mid="url(#SvgjsMarker1000)" style="animation:score-draw ease-in 32s -24s infinite" d="M10 74l23.077 2.4H79.23l23.077-2.4 23.077 4.8 23.077-4.8 23.076 7.2 23.077-1.2 23.077-7.2 23.077 6 23.077 1.2 23.077-3.6H310"/><text font-family="-apple-system,BlinkMacSystemFont,Segoe UI,Oxygen,Ubuntu,Cantarell,Fira Sans,Droid Sans,Helvetica Neue,sans-serif" font-size="60" fill="#0dadff" stroke-width="5" stroke="#151f2e" paint-order="stroke" x="10" y="94.131">7.6</text><text font-family="-apple-system,BlinkMacSystemFont,Segoe UI,Oxygen,Ubuntu,Cantarell,Fira Sans,Droid Sans,Helvetica Neue,sans-serif" font-size="20" fill="#0dadff" stroke-width="5" stroke="#151f2e" paint-order="stroke" stroke-linejoin="round" x="15" y="116.377">↓ 3%</text></g><defs><marker markerWidth="3" markerHeight="3" refX="1.5" refY="1.5" viewBox="0 0 3 3" orient="auto" id="SvgjsMarker1000"><circle r="1.5" cx="1.5" cy="1.5" fill="#9fadbd"/></marker><marker markerWidth="3" markerHeight="3" refX="1.5" refY="1.5" viewBox="0 0 3 3" orient="auto" id="SvgjsMarker1001"><circle r="1.5" cx="1.5" cy="1.5" fill="#9fadbd"/></marker></defs><g style="animation:fade ease-in 32s -16s infinite"><text font-family="-apple-system,BlinkMacSystemFont,Segoe UI,Oxygen,Ubuntu,Cantarell,Fira Sans,Droid Sans,Helvetica Neue,sans-serif" font-size="20" fill="#9fadbd" x="10" y="31.377">Watched episodes last month</text><path fill="none" stroke="#485464" stroke-dasharray="1" d="M10 170h300M10 159.091h300M10 148.182h300M10 137.273h300M10 126.364h300M10 115.455h300M10 104.545h300M10 93.636h300M10 82.727h300M10 71.818h300M10 60.909h300M10 50h300"/><path fill="none" stroke="#9fadbd" stroke-dasharray="964" marker-mid="url(#SvgjsMarker1001)" style="animation:episode-draw ease-in 32s -16s infinite" d="M10 115.455h10.345l10.345 21.818 10.344 10.909 10.345-10.91 10.345-32.727H72.07l10.345 43.637 10.345-54.546 10.344 54.546 10.345-43.637 10.345 32.728 10.345-10.91 10.345-43.636h10.345l10.344 10.91 10.345 54.545h10.345L196.207 170l10.345-76.364 10.345 54.546 10.344-10.91 10.345-21.817L247.931 50l10.345 32.727 10.345 32.728 10.345-32.728 10.344 32.728 10.345 21.818L310 93.636"/><text font-family="-apple-system,BlinkMacSystemFont,Segoe UI,Oxygen,Ubuntu,Cantarell,Fira Sans,Droid Sans,Helvetica Neue,sans-serif" font-size="60" fill="#0dadff" stroke-width="5" stroke="#151f2e" paint-order="stroke" x="10" y="94.131">145</text><text font-family="-apple-system,BlinkMacSystemFont,Segoe UI,Oxygen,Ubuntu,Cantarell,Fira Sans,Droid Sans,Helvetica Neue,sans-serif" font-size="20" fill="#0dadff" stroke-width="5" stroke="#151f2e" paint-order="stroke" stroke-linejoin="round" x="15" y="116.377">↓ 5%</text></g><g style="animation:fade ease-in 32s -8s infinite" font-family="-apple-system,BlinkMacSystemFont,Segoe UI,Oxygen,Ubuntu,Cantarell,Fira Sans,Droid Sans,Helvetica Neue,sans-serif" fill="#9fadbd"><text font-size="20" x="10" y="31.377">Top genres last two weeks</text><text font-size="15" x="10" y="66.033" style="animation:fade2 ease-in 32s -9s infinite"><tspan fill="#0dadff">1 </tspan><tspan>Comedy</tspan></text><text font-size="8" x="22" y="78.551" style="animation:fade2 ease-in 32s -8.5s infinite">47 episodes</text><text font-size="15" x="165" y="66.033" style="animation:fade2 ease-in 32s -8.75s infinite"><tspan fill="#0dadff">2 </tspan><tspan>Slice of Life</tspan></text><text font-size="8" x="177" y="78.551" style="animation:fade2 ease-in 32s -8.25s infinite">32 episodes</text><text font-size="15" x="10" y="106.033" style="animation:fade2 ease-in 32s -8.5s infinite"><tspan fill="#0dadff">3 </tspan><tspan>Romance</tspan></text><text font-size="8" x="22" y="118.551" style="animation:fade2 ease-in 32s -8s infinite">24 episodes</text><text font-size="15" x="165" y="106.033" style="animation:fade2 ease-in 32s -8.25s infinite"><tspan fill="#0dadff">4 </tspan><tspan>Adventure</tspan></text><text font-size="8" x="177" y="118.551" style="animation:fade2 ease-in 32s -7.75s infinite">14 episodes</text><text font-size="15" x="10" y="146.033" style="animation:fade2 ease-in 32s -8s infinite"><tspan fill="#0dadff">5 </tspan><tspan>Drama</tspan></text><text font-size="8" x="22" y="158.551" style="animation:fade2 ease-in 32s -7.5s infinite">12 episodes</text><text font-size="15" x="165" y="146.033" style="animation:fade2 ease-in 32s -7.75s infinite"><tspan fill="#0dadff">6 </tspan><tspan>Fantasy</tspan></text><text font-size="8" x="177" y="158.551" style="animation:fade2 ease-in 32s -7.25s infinite">11 episodes</text></g><g style="animation:fade ease-in 32s 0s infinite"><path stroke="#485464" d="M110 0v180"/><path stroke="#0dadff" d="M210 0v180"/><text font-family="-apple-system,BlinkMacSystemFont,Segoe UI,Oxygen,Ubuntu,Cantarell,Fira Sans,Droid Sans,Helvetica Neue,sans-serif" font-size="7" fill="#485464" x="5" y="174.482">2ND LAST WEEK</text><text font-family="-apple-system,BlinkMacSystemFont,Segoe UI,Oxygen,Ubuntu,Cantarell,Fira Sans,Droid Sans,Helvetica Neue,sans-serif" font-size="7" fill="#485464" x="115" y="174.482">LAST WEEK</text><text font-family="-apple-system,BlinkMacSystemFont,Segoe UI,Oxygen,Ubuntu,Cantarell,Fira Sans,Droid Sans,Helvetica Neue,sans-serif" font-size="7" fill="#485464" x="215" y="174.482">NEXT WEEK</text><path fill="#151f2e" stroke="#9fadbd" d="M-56.667 50h433.333v12H-56.667z"/><text font-family="-apple-system,BlinkMacSystemFont,Segoe UI,Oxygen,Ubuntu,Cantarell,Fira Sans,Droid Sans,Helvetica Neue,sans-serif" font-size="9" fill="#9fadbd" x="5" y="59.62">Mahou Shoujo Taisen</text><path fill="#151f2e" stroke="#9fadbd" d="M160 50h200v12H160z"/><text font-family="-apple-system,BlinkMacSystemFont,Segoe UI,Oxygen,Ubuntu,Cantarell,Fira Sans,Droid Sans,Helvetica Neue,sans-serif" font-size="9" fill="#9fadbd" x="165" y="59.62">Dogeza de Tanondemita</text><path fill="#151f2e" stroke="#9fadbd" d="M-356.667 65h833.333v12h-833.333z"/><text font-family="-apple-system,BlinkMacSystemFont,Segoe UI,Oxygen,Ubuntu,Cantarell,Fira Sans,Droid Sans,Helvetica Neue,sans-serif" font-size="9" fill="#9fadbd" x="5" y="74.62">Chibi☆Devi!</text><path fill="#151f2e" stroke="#9fadbd" d="M60 65h766.667v12H60z"/><text font-family="-apple-system,BlinkMacSystemFont,Segoe UI,Oxygen,Ubuntu,Cantarell,Fira Sans,Droid Sans,Helvetica Neue,sans-serif" font-size="9" fill="#9fadbd" x="65" y="74.62">Kuromajo-san ga Tooru!!</text><path fill="#151f2e" stroke="#9fadbd" d="M293.333 65h1250v12h-1250z"/><text font-family="-apple-system,BlinkMacSystemFont,Segoe UI,Oxygen,Ubuntu,Cantarell,Fira Sans,Droid Sans,Helvetica Neue,sans-serif" font-size="9" fill="#9fadbd" x="298.333" y="74.62">Chibi☆Devi!</text><path fill="#151f2e" stroke="#9fadbd" d="M-106.667 80H76.666v12h-183.333z"/><text font-family="-apple-system,BlinkMacSystemFont,Segoe UI,Oxygen,Ubuntu,Cantarell,Fira Sans,Droid Sans,Helvetica Neue,sans-serif" font-size="9" fill="#9fadbd" x="5" y="89.62">Jashin-chan Dropkick</text><path fill="#151f2e" stroke="#9fadbd" d="M76.667 80H260v12H76.667z"/><text font-family="-apple-system,BlinkMacSystemFont,Segoe UI,Oxygen,Ubuntu,Cantarell,Fira Sans,Droid Sans,Helvetica Neue,sans-serif" font-size="9" fill="#9fadbd" x="81.667" y="89.62">Aoi Hana</text><path fill="#151f2e" stroke="#9fadbd" d="M260 80h633.333v12H260z"/><text font-family="-apple-system,BlinkMacSystemFont,Segoe UI,Oxygen,Ubuntu,Cantarell,Fira Sans,Droid Sans,Helvetica Neue,sans-serif" font-size="9" fill="#9fadbd" x="265" y="89.62">Shirokuma Cafe</text><path fill="#151f2e" stroke="#9fadbd" d="M-106.667 95h400v12h-400z"/><text font-family="-apple-system,BlinkMacSystemFont,Segoe UI,Oxygen,Ubuntu,Cantarell,Fira Sans,Droid Sans,Helvetica Neue,sans-serif" font-size="9" fill="#9fadbd" x="5" y="104.62">Carole e Tuesday</text><path fill="#151f2e" stroke="#9fadbd" d="M93.333 95h83.333v12H93.333z"/><text font-family="-apple-system,BlinkMacSystemFont,Segoe UI,Oxygen,Ubuntu,Cantarell,Fira Sans,Droid Sans,Helvetica Neue,sans-serif" font-size="9" fill="#9fadbd" x="98.333" y="104.62">Gokushufudou</text><path fill="#151f2e" stroke="#9fadbd" d="M176.667 95h216.667v12H176.667z"/><text font-family="-apple-system,BlinkMacSystemFont,Segoe UI,Oxygen,Ubuntu,Cantarell,Fira Sans,Droid Sans,Helvetica Neue,sans-serif" font-size="9" fill="#9fadbd" x="181.667" y="104.62">Ookami to Koushinryou</text><path fill="#151f2e" stroke="#9fadbd" d="M-173.333 110h366.667v12h-366.667z"/><text font-family="-apple-system,BlinkMacSystemFont,Segoe UI,Oxygen,Ubuntu,Cantarell,Fira Sans,Droid Sans,Helvetica Neue,sans-serif" font-size="9" fill="#9fadbd" x="5" y="119.62">Shigatsu wa Kimi no Uso</text><path fill="#151f2e" stroke="#9fadbd" d="M10 110h133.333v12H10z"/><text font-family="-apple-system,BlinkMacSystemFont,Segoe UI,Oxygen,Ubuntu,Cantarell,Fira Sans,Droid Sans,Helvetica Neue,sans-serif" font-size="9" fill="#9fadbd" x="15" y="119.62">Tsurezure Children</text><path fill="#151f2e" stroke="#9fadbd" d="M76.667 110h216.667v12H76.667z"/><text font-family="-apple-system,BlinkMacSystemFont,Segoe UI,Oxygen,Ubuntu,Cantarell,Fira Sans,Droid Sans,Helvetica Neue,sans-serif" font-size="9" fill="#9fadbd" x="81.667" y="119.62">Sasameki Koto</text><path fill="#151f2e" stroke="#9fadbd" d="M293.333 110h183.333v12H293.333z"/><text font-family="-apple-system,BlinkMacSystemFont,Segoe UI,Oxygen,Ubuntu,Cantarell,Fira Sans,Droid Sans,Helvetica Neue,sans-serif" font-size="9" fill="#9fadbd" x="298.333" y="119.62">3-gatsu no Lion</text><path fill="#151f2e" stroke="#9fadbd" d="M-6.667 125h100v12h-100z"/><text font-family="-apple-system,BlinkMacSystemFont,Segoe UI,Oxygen,Ubuntu,Cantarell,Fira Sans,Droid Sans,Helvetica Neue,sans-serif" font-size="9" fill="#9fadbd" x="5" y="134.62">Kemurikusa (2018)</text><path fill="#151f2e" stroke="#9fadbd" d="M110 125h50v12h-50zM176.667 125h16.667v12h-16.667zM210 125h200v12H210z"/><text font-family="-apple-system,BlinkMacSystemFont,Segoe UI,Oxygen,Ubuntu,Cantarell,Fira Sans,Droid Sans,Helvetica Neue,sans-serif" font-size="9" fill="#9fadbd" x="215" y="134.62">Tsurezure Children</text><path fill="#151f2e" stroke="#9fadbd" d="M293.333 125h433.333v12H293.333z"/><text font-family="-apple-system,BlinkMacSystemFont,Segoe UI,Oxygen,Ubuntu,Cantarell,Fira Sans,Droid Sans,Helvetica Neue,sans-serif" font-size="9" fill="#9fadbd" x="298.333" y="134.62">3 Choume no Tama Uchi no Tama Shirimasen ka</text><path fill="#151f2e" stroke="#9fadbd" d="M-840 140H576.667v12H-840z"/><text font-family="-apple-system,BlinkMacSystemFont,Segoe UI,Oxygen,Ubuntu,Cantarell,Fira Sans,Droid Sans,Helvetica Neue,sans-serif" font-size="9" fill="#9fadbd" x="5" y="149.62">Holo no Graffiti</text><text font-family="-apple-system,BlinkMacSystemFont,Segoe UI,Oxygen,Ubuntu,Cantarell,Fira Sans,Droid Sans,Helvetica Neue,sans-serif" font-size="20" fill="#9fadbd" x="10" y="31.377">Planned anime</text></g></svg>